<svg version="1.1" id="Layer_1" xmlns="http://www.w3.org/2000/svg" xmlns:xlink="http://www.w3.org/1999/xlink" x="0px" y="0px"
	 width="100%" viewBox="0 0 1150 460" enable-background="new 0 0 1150 460" xml:space="preserve">
<path fill="#FFFFFF" opacity="1.000000" stroke="none" 
	d="
M879.000000,461.000000 
	C586.000061,461.000000 293.500092,461.000000 1.000118,461.000000 
	C1.000078,307.666748 1.000078,154.333496 1.000039,1.000180 
	C384.333160,1.000120 767.666321,1.000120 1150.999634,1.000060 
	C1150.999756,154.333160 1150.999756,307.666321 1150.999878,460.999756 
	C1060.500000,461.000000 970.000000,461.000000 879.000000,461.000000 
M52.612862,165.082916 
	C41.596340,196.486374 38.710442,228.704117 44.029259,261.471863 
	C52.749908,315.197296 79.408600,358.417023 123.172211,390.445770 
	C166.011963,421.798431 214.305298,433.844666 267.100433,427.133759 
	C308.345520,421.891022 344.598999,405.325165 375.067078,377.227600 
	C419.602234,336.157440 441.606293,285.143646 440.195679,224.242279 
	C439.442657,191.733292 430.908691,161.418793 414.905853,133.312271 
	C372.966217,59.651569 290.956268,20.087505 207.418320,35.165764 
	C132.004837,48.777573 80.743965,92.991470 52.612862,165.082916 
M620.455566,291.912140 
	C617.360046,292.945129 614.264526,293.978119 610.666260,295.178864 
	C610.666260,284.457062 610.666260,274.047668 610.666260,263.509216 
	C606.514099,263.509216 602.825439,263.509216 598.986389,263.509216 
	C598.986389,288.331177 598.986450,312.793365 598.986450,337.255585 
	C598.986450,346.357056 598.986389,346.356995 607.823425,348.455963 
	C633.693909,354.600616 652.201477,339.036652 649.080322,313.761017 
	C647.270996,299.108948 635.085083,289.457703 620.455566,291.912140 
M888.729553,146.786514 
	C884.203857,142.184814 878.639771,139.691940 872.267273,139.517715 
	C863.668213,139.282562 855.057983,139.459305 846.314819,139.459305 
	C846.314819,167.587265 846.314819,195.599609 846.314819,223.522186 
	C850.219177,223.522186 853.788330,223.522186 857.832764,223.522186 
	C857.832764,213.808472 857.832764,204.411133 857.832764,194.636063 
	C866.059326,196.888000 873.715942,197.475052 881.198975,193.911606 
	C900.046631,184.936310 900.108765,158.541183 888.729553,146.786514 
M515.051514,122.025620 
	C519.224976,124.206841 523.398438,126.388054 527.580444,128.573715 
	C528.698425,113.719559 527.128906,111.746170 512.455017,109.529877 
	C511.796173,109.430367 511.138763,109.312111 510.476318,109.246956 
	C499.435364,108.161232 488.549927,114.174652 484.716309,123.470306 
	C480.637726,133.359940 483.687256,143.019104 493.725739,150.465439 
	C498.515381,154.018311 503.881073,156.784531 508.805328,160.169662 
	C511.788879,162.220703 514.899780,164.395767 517.126282,167.177261 
	C522.509277,173.902191 519.482483,181.961426 511.150787,184.198090 
	C503.663757,186.208023 497.447205,183.420074 491.637695,179.130478 
	C489.219452,177.344894 486.934113,175.379349 484.237427,173.213837 
	C483.885345,190.049622 484.250824,190.947144 495.707275,194.657959 
	C499.284271,195.816574 503.191498,196.392426 506.958588,196.445175 
	C518.151489,196.601898 526.822937,190.905746 530.147949,181.704880 
	C533.870361,171.404236 531.205811,161.091553 522.347839,153.954697 
	C517.712402,150.219910 512.387878,147.350769 507.469055,143.953827 
	C504.064575,141.602631 500.410339,139.407562 497.601959,136.446381 
	C493.290344,131.900192 494.486237,126.241882 499.824371,122.988182 
	C504.443481,120.172737 509.302460,120.445366 515.051514,122.025620 
M943.982605,173.507263 
	C943.982605,180.752838 943.982605,187.998413 943.982605,195.225037 
	C948.199890,195.225037 951.781433,195.225037 954.990173,195.225037 
	C954.990173,181.304703 955.730164,167.652588 954.770874,154.120941 
	C953.905151,141.908096 942.024414,135.346069 930.557983,139.685562 
	C927.244080,140.939728 924.194214,142.891464 920.591919,144.745407 
	C920.591919,133.155258 920.591919,121.895546 920.591919,110.502037 
	C916.515381,110.502037 912.825378,110.502037 909.191650,110.502037 
	C909.191650,138.939743 909.191650,167.019089 909.191650,195.137146 
	C913.115601,195.137146 916.821777,195.137146 920.449219,195.137146 
	C920.586670,194.407547 920.701599,194.081360 920.702026,193.755020 
	C920.717041,182.937424 921.186279,172.092712 920.558044,161.312042 
	C920.159424,154.471817 923.645935,151.290085 928.901306,148.875259 
	C935.511597,145.837860 941.705200,148.547531 942.984375,155.647842 
	C943.975647,161.150452 943.696838,166.881912 943.982605,173.507263 
M904.997009,291.487030 
	C899.481201,292.282928 893.587036,292.103394 888.524109,294.067047 
	C875.934753,298.949768 869.580261,312.304138 872.099792,326.445343 
	C874.409241,339.407257 885.340942,348.562744 899.624817,349.497986 
	C915.496521,350.537201 929.165039,339.843506 930.891479,325.036163 
	C932.944031,307.432587 923.005981,294.168610 904.997009,291.487030 
M679.336121,348.277588 
	C681.949768,348.691803 684.551025,349.344116 687.179077,349.481079 
	C702.701477,350.289917 715.823547,339.962463 717.854553,325.466644 
	C720.081177,309.573883 711.493652,296.095367 696.702576,292.267609 
	C680.390381,288.046234 664.406006,296.358002 659.980164,311.363007 
	C655.209778,327.536194 662.888000,342.716949 679.336121,348.277588 
M767.516846,139.887283 
	C757.584351,136.941422 748.016663,137.651871 739.470337,143.745789 
	C727.127808,152.546539 723.934692,169.735382 731.812744,182.962708 
	C739.144470,195.272720 756.756897,200.388931 770.522400,193.894623 
	C781.679382,188.630981 787.172913,179.515656 787.053772,167.202774 
	C786.925903,153.988739 780.585144,144.915970 767.516846,139.887283 
M968.780212,158.332565 
	C966.181824,170.712860 967.994812,181.993484 978.042786,190.561615 
	C987.468811,198.599426 998.349487,197.808746 1009.132812,193.940598 
	C1017.617126,190.897156 1018.722107,188.075638 1016.485535,178.916641 
	C995.290649,189.698883 979.863831,185.462570 980.254883,168.404510 
	C992.777466,168.404510 1005.322693,168.404510 1017.903870,168.404510 
	C1017.903870,165.859055 1018.063354,163.857681 1017.878113,161.888733 
	C1016.634277,148.669754 1008.887756,140.136475 996.754211,138.510925 
	C983.991760,136.801147 973.306274,144.112244 968.780212,158.332565 
M1073.279175,155.986359 
	C1073.102783,156.799591 1072.918823,157.611267 1072.751221,158.426315 
	C1070.203491,170.812759 1072.022583,182.114502 1082.121826,190.625015 
	C1091.749512,198.738098 1102.783813,197.803253 1113.693848,193.721329 
	C1121.763794,190.702026 1122.917969,187.558151 1120.381104,178.940384 
	C1107.468628,185.715424 1097.630615,187.116821 1091.198120,182.725159 
	C1086.430176,179.469986 1084.081665,174.772980 1083.977661,168.538376 
	C1090.464722,168.538376 1096.600220,168.538391 1102.735718,168.538391 
	C1109.036865,168.538391 1115.338013,168.538376 1121.579712,168.538376 
	C1123.755493,152.042770 1114.501465,139.778580 1099.147339,138.326569 
	C1088.295044,137.300293 1079.168579,143.361801 1073.279175,155.986359 
M1000.645935,351.037445 
	C996.823425,359.470306 993.000977,367.903168 988.946045,376.848846 
	C991.381287,376.848846 993.217529,376.568970 994.935425,376.901062 
	C1000.181519,377.915344 1002.353760,375.288208 1004.377991,370.758698 
	C1014.328552,348.493134 1024.673218,326.403809 1034.859619,304.243439 
	C1036.640015,300.370117 1038.328125,296.454407 1040.239624,292.151154 
	C1037.801758,292.151154 1035.929077,292.439758 1034.180054,292.097107 
	C1028.901001,291.062836 1026.619995,293.672607 1024.758057,298.275726 
	C1021.479858,306.380707 1017.516052,314.208435 1013.548706,322.780151 
	C1009.958740,315.217957 1006.705933,308.324951 1003.417664,301.448822 
	C998.687744,291.558044 998.676636,291.562653 987.608459,292.270569 
	C987.473694,292.279236 987.346313,292.403381 986.716797,292.741241 
	C987.411804,294.299652 988.090820,295.921661 988.848938,297.505829 
	C992.787659,305.736084 995.994751,314.439240 1000.886230,322.060150 
	C1007.190674,331.882629 1007.333374,340.894745 1000.645935,351.037445 
M820.263733,339.160797 
	C818.934753,339.572113 817.605835,339.983429 815.701172,340.572937 
	C815.453003,337.944092 815.131592,336.012207 815.111938,334.077240 
	C815.025574,325.590302 815.182495,317.098053 814.945374,308.616302 
	C814.763123,302.096313 812.429871,296.296478 806.116272,293.564606 
	C796.546936,289.424011 787.280884,290.510742 778.886536,296.920746 
	C777.952209,297.634155 776.990723,298.935272 776.910217,300.027863 
	C776.656616,303.469635 776.816650,306.941895 776.816650,311.024689 
	C778.418335,309.745026 779.400879,308.913666 780.430481,308.145203 
	C785.339050,304.481476 790.566956,301.687256 796.978394,303.014832 
	C801.440247,303.938751 802.840027,307.194031 803.287903,311.404266 
	C803.740173,315.655914 800.312317,314.977875 798.167358,315.991241 
	C792.216736,318.802551 785.808411,320.938538 780.434692,324.595795 
	C774.943054,328.333221 774.074768,336.154938 777.047729,342.231201 
	C779.761902,347.778534 785.250977,350.614777 792.110107,349.129700 
	C796.056519,348.275269 799.740173,346.207214 803.660767,344.637970 
	C807.803162,350.693085 816.898499,351.343323 822.034607,345.507568 
	C823.663025,343.657349 823.046204,339.630066 820.263733,339.160797 
M582.122009,303.650513 
	C578.773743,293.748779 570.598572,289.620728 558.477844,291.711334 
	C546.581116,293.763306 543.323792,298.403259 545.357300,310.625031 
	C546.446167,309.744537 547.438843,308.885681 548.488159,308.102844 
	C553.400330,304.438110 558.644409,301.669800 565.045715,303.027527 
	C569.502686,303.972900 570.874207,307.270874 571.289368,311.471985 
	C571.710510,315.733429 568.241516,315.006256 566.099548,315.997253 
	C560.418884,318.625397 554.297852,320.571625 549.133850,323.975372 
	C543.187012,327.895020 541.994446,335.295654 544.932434,341.807037 
	C547.667419,347.868500 553.289246,350.743317 560.659058,349.048676 
	C564.438110,348.179718 567.940125,346.106140 571.650696,344.541840 
	C574.915527,349.456146 578.762146,350.763245 584.413391,348.579803 
	C591.046387,346.016998 591.403564,345.412689 590.393921,338.462769 
	C588.410034,339.138947 586.426086,339.815155 583.686035,340.749023 
	C583.450745,337.833588 583.173035,335.587799 583.104431,333.335663 
	C582.811523,323.713928 582.580505,314.090302 582.122009,303.650513 
M636.287415,142.773178 
	C629.974182,146.611557 633.937500,152.455811 632.513855,158.370285 
	C634.662842,156.592041 635.751038,155.562210 636.964294,154.710617 
	C641.672607,151.405884 646.622803,148.812012 652.680481,149.961151 
	C657.169678,150.812744 658.702759,153.859573 659.265991,158.101288 
	C659.867920,162.634323 656.277832,161.963257 653.978149,163.045868 
	C648.023438,165.849091 641.642212,168.050812 636.286133,171.735413 
	C630.935364,175.416336 630.149048,182.854584 632.971680,188.951630 
	C635.602356,194.634033 641.000061,197.597855 647.828308,196.170212 
	C651.930176,195.312607 655.772644,193.214691 659.835938,191.633636 
	C662.890137,196.518112 666.753357,197.806458 672.560486,195.497757 
	C679.192261,192.861206 679.585449,192.165970 678.223633,185.505966 
	C676.265381,186.153305 674.305176,186.801285 671.743713,187.648026 
	C671.477478,185.012390 671.133911,183.085526 671.113586,181.155258 
	C671.024292,172.666229 671.220154,164.170090 670.948730,155.688171 
	C670.631409,145.772598 665.331665,140.101410 655.538147,138.572189 
	C648.853821,137.528473 642.663330,138.910339 636.287415,142.773178 
M485.908569,325.499939 
	C485.908569,333.078613 485.908569,340.657288 485.908569,348.319092 
	C502.957611,348.319092 519.361450,348.319092 535.923828,348.319092 
	C535.923828,344.516724 535.923828,340.940033 535.923828,336.900055 
	C523.433289,336.900055 511.205872,336.900055 498.525818,336.900055 
	C498.525818,312.066071 498.525818,287.695435 498.525818,263.412781 
	C494.121094,263.412781 490.188599,263.412781 486.347137,263.412781 
	C486.158905,263.981476 485.970947,264.284851 485.970490,264.588501 
	C485.940186,284.558960 485.925018,304.529449 485.908569,325.499939 
M830.981079,170.599045 
	C827.762512,168.008133 824.651245,165.266815 821.293884,162.870270 
	C818.192505,160.656433 814.650391,159.037384 811.666321,156.693069 
	C810.492126,155.770630 809.549988,153.405548 809.886597,152.038269 
	C810.206787,150.737961 812.268616,149.110428 813.678772,148.992691 
	C816.570312,148.751282 819.657410,149.015167 822.443481,149.827576 
	C825.698059,150.776627 828.717224,152.532852 832.182190,154.093689 
	C832.182190,150.898148 832.438293,148.044479 832.069885,145.273849 
	C831.895569,143.963150 830.804016,142.250549 829.652344,141.679840 
	C822.899841,138.333801 815.736023,137.264755 808.344116,139.079880 
	C798.508423,141.495087 794.268127,150.754898 799.197937,159.580551 
	C800.759216,162.375687 803.223755,164.908417 805.816650,166.830353 
	C810.072083,169.984680 814.939819,172.313187 819.193726,175.469162 
	C820.784058,176.649033 822.443481,179.368713 822.135376,181.026352 
	C821.811340,182.769257 819.397766,184.727173 817.478577,185.404526 
	C815.460938,186.116577 812.757629,185.961395 810.688843,185.233536 
	C806.091797,183.616180 801.703918,181.404236 796.988708,179.328079 
	C796.988708,182.434143 796.806274,185.571121 797.080627,188.667648 
	C797.186768,189.865463 798.046814,191.519363 799.043152,192.030548 
	C805.497131,195.341995 812.255188,197.334976 819.680298,196.186981 
	C833.088379,194.113892 838.462402,182.766891 830.981079,170.599045 
M567.446533,139.148865 
	C564.353943,139.148865 561.261353,139.148865 557.777954,139.148865 
	C557.777954,135.143555 557.777954,131.764648 557.777954,128.621140 
	C550.768311,135.765167 543.875488,142.790070 536.894348,149.905045 
	C539.750549,149.905045 542.812683,149.905045 545.523010,149.905045 
	C545.971985,150.411346 546.174866,150.533173 546.175598,150.656174 
	C546.220642,158.314651 546.019653,165.983597 546.365234,173.627899 
	C546.573303,178.229996 546.941467,183.037338 548.457031,187.321091 
	C551.145691,194.920624 559.579102,198.125595 569.017151,195.979126 
	C577.757812,193.991287 578.427917,193.035309 578.124817,182.893768 
	C578.116760,182.622955 577.830994,182.360458 577.843323,182.381485 
	C573.914917,183.320526 570.144592,184.536514 566.280518,185.061310 
	C561.987549,185.644333 558.764465,183.311325 558.590149,179.091690 
	C558.189209,169.385666 558.463074,159.651779 558.463074,149.683533 
	C564.035645,149.683533 569.323059,149.683533 574.720154,149.683533 
	C574.720154,146.067535 574.720154,142.713928 574.720154,139.148865 
	C572.374390,139.148865 570.394409,139.148865 567.446533,139.148865 
M846.235840,330.679169 
	C846.235840,321.429047 846.235840,312.178925 846.235840,302.698303 
	C851.992981,302.698303 857.286011,302.698303 862.734131,302.698303 
	C862.734131,299.093079 862.734131,295.738251 862.734131,291.949951 
	C856.984314,291.949951 851.582642,291.949951 845.772766,291.949951 
	C845.772766,288.140045 845.772766,284.760773 845.772766,281.691010 
	C838.792480,288.796570 831.894043,295.818726 824.912720,302.925354 
	C827.764099,302.925354 830.829468,302.925354 834.279297,302.925354 
	C834.279297,311.091461 834.042664,318.890930 834.368835,326.666809 
	C834.561890,331.268829 834.952332,336.080200 836.478760,340.360718 
	C839.188232,347.958954 847.630310,351.140289 857.073547,348.969818 
	C865.659668,346.996399 866.492676,345.793854 866.117126,335.827972 
	C866.107117,335.563507 865.792664,335.310455 865.707092,335.182281 
	C862.502747,336.137726 859.413513,337.423553 856.200745,337.937653 
	C850.277039,338.885681 848.291992,337.413483 846.235840,330.679169 
M718.516296,183.181335 
	C715.784302,183.835175 713.083496,184.770584 710.313049,185.077820 
	C706.003784,185.555695 702.771545,183.340668 702.595581,179.112213 
	C702.191284,169.399658 702.467468,159.658783 702.467468,149.680298 
	C708.038147,149.680298 713.330933,149.680298 718.713440,149.680298 
	C718.713440,146.058838 718.713440,142.703491 718.713440,138.912460 
	C712.943115,138.912460 707.542664,138.912460 701.726868,138.912460 
	C701.726868,135.100174 701.726868,131.731781 701.726868,127.005341 
	C697.417725,131.560532 694.094543,135.274902 690.549377,138.763733 
	C687.073303,142.184616 683.371277,145.375992 679.768433,148.668076 
	C680.086670,149.105133 680.404968,149.542191 680.723206,149.979248 
	C683.799805,149.979248 686.876343,149.979248 690.649353,149.979248 
	C690.649353,160.142487 690.175842,169.961975 690.765930,179.717117 
	C691.551086,192.696838 700.028259,198.694870 712.659912,196.038376 
	C721.827881,194.110321 723.544678,191.398163 721.508606,181.849457 
	C720.742981,182.216980 720.012390,182.567673 718.516296,183.181335 
M764.260681,293.124084 
	C753.830872,287.874115 748.082642,295.024445 741.526367,302.893250 
	C741.526367,298.459045 741.526367,295.414001 741.526367,292.453674 
	C737.390259,292.453674 733.811096,292.453674 730.154297,292.453674 
	C730.154297,311.191437 730.154297,329.619812 730.154297,348.173462 
	C734.049500,348.173462 737.768372,348.173462 741.726074,348.173462 
	C741.726074,339.329987 741.598755,330.848846 741.785950,322.374634 
	C741.865906,318.755676 742.028137,314.960693 743.151062,311.576904 
	C746.176514,302.459991 754.448486,300.106232 762.113953,305.808868 
	C762.749695,306.281830 763.345154,306.808899 764.292358,307.582947 
	C766.411804,303.943695 768.345703,300.623016 770.363525,297.158173 
	C768.199097,295.723785 766.545654,294.628082 764.260681,293.124084 
M981.239929,300.799286 
	C981.879639,299.687225 982.519348,298.575165 983.786011,296.373260 
	C979.113403,294.521881 974.973145,291.715729 970.670898,291.440430 
	C963.594604,290.987549 959.496643,296.805145 954.600708,303.058319 
	C954.600708,298.505432 954.600708,295.464783 954.600708,292.423004 
	C950.450928,292.423004 946.873535,292.423004 943.327393,292.423004 
	C943.327393,311.227783 943.327393,329.752136 943.327393,348.200500 
	C947.261597,348.200500 950.842224,348.200500 954.725952,348.200500 
	C954.725952,345.553680 954.705566,343.244385 954.729553,340.935547 
	C954.815796,332.615753 954.676758,324.283936 955.098389,315.980804 
	C955.373291,310.568420 957.882874,305.975861 963.027771,303.588013 
	C968.080383,301.243011 972.360535,303.265198 976.182922,306.731079 
	C976.478882,306.999390 977.037781,306.977600 977.545959,307.109161 
	C978.706421,305.161255 979.807129,303.313568 981.239929,300.799286 
M597.705688,193.905899 
	C597.807983,183.596375 597.689331,173.277985 598.103027,162.980972 
	C598.320190,157.575806 600.878418,152.984863 606.017029,150.593994 
	C611.063110,148.246185 615.343140,150.250839 619.163879,153.718063 
	C619.463379,153.989868 620.018921,153.979584 620.580444,154.134979 
	C622.499634,150.809738 624.364868,147.578125 626.299683,144.225800 
	C621.438660,140.746765 616.883301,136.496140 611.129272,138.923737 
	C606.233337,140.989319 602.104065,144.871841 597.433716,148.089600 
	C597.433716,145.422089 597.433716,142.367111 597.433716,139.485596 
	C593.313171,139.485596 589.738647,139.485596 586.176758,139.485596 
	C586.176758,158.244110 586.176758,176.661041 586.176758,195.824005 
	C590.108276,195.460159 593.811523,195.117432 597.705688,193.905899 
M1040.726440,168.637589 
	C1040.816284,166.811554 1040.807983,164.974350 1041.014404,163.161591 
	C1041.652100,157.560760 1043.926880,152.799713 1049.287964,150.451111 
	C1054.347412,148.234665 1058.626709,150.445709 1062.405884,153.901169 
	C1062.608032,154.085907 1063.025024,154.035736 1063.552490,154.134247 
	C1065.408081,150.947021 1067.294800,147.706009 1069.814453,143.378143 
	C1065.103271,141.514343 1060.964478,138.710602 1056.666260,138.440338 
	C1049.598389,137.995895 1045.494995,143.792526 1040.618896,150.051743 
	C1040.618896,145.507599 1040.618896,142.481766 1040.618896,139.408997 
	C1036.476562,139.408997 1032.902222,139.408997 1029.283691,139.408997 
	C1029.283691,158.189209 1029.283691,176.703552 1029.283691,195.237061 
	C1033.172241,195.237061 1036.752075,195.237061 1040.725952,195.237061 
	C1040.725952,186.494339 1040.725952,178.049438 1040.726440,168.637589 
z"/>
<path fill="#5FBED2" opacity="1.000000" stroke="none" 
	d="
M52.745270,164.713257 
	C80.743965,92.991470 132.004837,48.777573 207.418320,35.165764 
	C290.956268,20.087505 372.966217,59.651569 414.905853,133.312271 
	C430.908691,161.418793 439.442657,191.733292 440.195679,224.242279 
	C441.606293,285.143646 419.602234,336.157440 375.067078,377.227600 
	C344.598999,405.325165 308.345520,421.891022 267.100433,427.133759 
	C214.305298,433.844666 166.011963,421.798431 123.172211,390.445770 
	C79.408600,358.417023 52.749908,315.197296 44.029259,261.471863 
	C38.710442,228.704117 41.596340,196.486374 52.745270,164.713257 
M75.821533,160.379074 
	C65.430466,184.606766 60.879471,209.844894 61.642574,236.237823 
	C62.488693,265.501862 69.531807,293.108734 84.653275,318.008057 
	C123.845016,382.541901 181.488785,413.058533 257.018555,408.109680 
	C295.288757,405.602203 329.151184,391.036346 357.929810,365.767212 
	C406.803650,322.853485 427.110260,268.496765 418.511017,204.268600 
	C412.628204,160.329346 391.527283,123.873161 357.771393,94.965759 
	C303.165161,48.202816 225.575104,38.393085 161.275208,70.463013 
	C122.266945,89.918617 93.834740,119.755447 75.821533,160.379074 
z"/>
<path fill="#070707" opacity="1.000000" stroke="none" 
	d="
M620.867493,291.827454 
	C635.085083,289.457703 647.270996,299.108948 649.080322,313.761017 
	C652.201477,339.036652 633.693909,354.600616 607.823425,348.455963 
	C598.986389,346.356995 598.986450,346.357056 598.986450,337.255585 
	C598.986450,312.793365 598.986389,288.331177 598.986389,263.509216 
	C602.825439,263.509216 606.514099,263.509216 610.666260,263.509216 
	C610.666260,274.047668 610.666260,284.457062 610.666260,295.178864 
	C614.264526,293.978119 617.360046,292.945129 620.867493,291.827454 
M637.206543,324.048920 
	C637.317749,322.399841 637.603149,320.740784 637.509399,319.103455 
	C637.137573,312.609558 634.925049,307.003357 628.723572,304.010895 
	C623.317993,301.402527 617.992249,302.313721 613.290649,305.860626 
	C612.053833,306.793701 610.873718,308.682831 610.828857,310.168030 
	C610.588379,318.129425 610.613892,326.104614 610.823242,334.067780 
	C610.854919,335.273010 612.127380,337.232635 613.172180,337.502441 
	C623.591492,340.192963 634.698303,337.277679 637.206543,324.048920 
z"/>
<path fill="#070707" opacity="1.000000" stroke="none" 
	d="
M889.013184,147.006317 
	C900.108765,158.541183 900.046631,184.936310 881.198975,193.911606 
	C873.715942,197.475052 866.059326,196.888000 857.832764,194.636063 
	C857.832764,204.411133 857.832764,213.808472 857.832764,223.522186 
	C853.788330,223.522186 850.219177,223.522186 846.314819,223.522186 
	C846.314819,195.599609 846.314819,167.587265 846.314819,139.459305 
	C855.057983,139.459305 863.668213,139.282562 872.267273,139.517715 
	C878.639771,139.691940 884.203857,142.184814 889.013184,147.006317 
M884.240845,171.080872 
	C886.001953,155.154449 875.226440,146.731384 857.713562,150.532822 
	C857.713562,151.644119 857.713623,152.796646 857.713623,153.949173 
	C857.713684,162.945953 857.602661,171.945633 857.836060,180.936356 
	C857.870300,182.256088 859.269775,184.257080 860.497070,184.717163 
	C871.531860,188.853821 881.227356,183.511826 884.240845,171.080872 
z"/>
<path fill="#070707" opacity="1.000000" stroke="none" 
	d="
M514.652344,121.934357 
	C509.302460,120.445366 504.443481,120.172737 499.824371,122.988182 
	C494.486237,126.241882 493.290344,131.900192 497.601959,136.446381 
	C500.410339,139.407562 504.064575,141.602631 507.469055,143.953827 
	C512.387878,147.350769 517.712402,150.219910 522.347839,153.954697 
	C531.205811,161.091553 533.870361,171.404236 530.147949,181.704880 
	C526.822937,190.905746 518.151489,196.601898 506.958588,196.445175 
	C503.191498,196.392426 499.284271,195.816574 495.707275,194.657959 
	C484.250824,190.947144 483.885345,190.049622 484.237427,173.213837 
	C486.934113,175.379349 489.219452,177.344894 491.637695,179.130478 
	C497.447205,183.420074 503.663757,186.208023 511.150787,184.198090 
	C519.482483,181.961426 522.509277,173.902191 517.126282,167.177261 
	C514.899780,164.395767 511.788879,162.220703 508.805328,160.169662 
	C503.881073,156.784531 498.515381,154.018311 493.725739,150.465439 
	C483.687256,143.019104 480.637726,133.359940 484.716309,123.470306 
	C488.549927,114.174652 499.435364,108.161232 510.476318,109.246956 
	C511.138763,109.312111 511.796173,109.430367 512.455017,109.529877 
	C527.128906,111.746170 528.698425,113.719559 527.580444,128.573715 
	C523.398438,126.388054 519.224976,124.206841 514.652344,121.934357 
z"/>
<path fill="#090909" opacity="1.000000" stroke="none" 
	d="
M943.982605,173.009460 
	C943.696838,166.881912 943.975647,161.150452 942.984375,155.647842 
	C941.705200,148.547531 935.511597,145.837860 928.901306,148.875259 
	C923.645935,151.290085 920.159424,154.471817 920.558044,161.312042 
	C921.186279,172.092712 920.717041,182.937424 920.702026,193.755020 
	C920.701599,194.081360 920.586670,194.407547 920.449219,195.137146 
	C916.821777,195.137146 913.115601,195.137146 909.191650,195.137146 
	C909.191650,167.019089 909.191650,138.939743 909.191650,110.502037 
	C912.825378,110.502037 916.515381,110.502037 920.591919,110.502037 
	C920.591919,121.895546 920.591919,133.155258 920.591919,144.745407 
	C924.194214,142.891464 927.244080,140.939728 930.557983,139.685562 
	C942.024414,135.346069 953.905151,141.908096 954.770874,154.120941 
	C955.730164,167.652588 954.990173,181.304703 954.990173,195.225037 
	C951.781433,195.225037 948.199890,195.225037 943.982605,195.225037 
	C943.982605,187.998413 943.982605,180.752838 943.982605,173.009460 
z"/>
<path fill="#060606" opacity="1.000000" stroke="none" 
	d="
M905.425171,291.552795 
	C923.005981,294.168610 932.944031,307.432587 930.891479,325.036163 
	C929.165039,339.843506 915.496521,350.537201 899.624817,349.497986 
	C885.340942,348.562744 874.409241,339.407257 872.099792,326.445343 
	C869.580261,312.304138 875.934753,298.949768 888.524109,294.067047 
	C893.587036,292.103394 899.481201,292.282928 905.425171,291.552795 
M910.964233,335.740967 
	C918.106201,331.039368 920.268677,324.146729 918.752808,316.196808 
	C917.469360,309.466125 913.081543,304.823151 906.376038,303.229095 
	C899.158203,301.513245 892.486877,302.814148 887.442932,308.904633 
	C882.473328,314.905426 882.389221,325.443054 887.241882,331.675537 
	C892.438538,338.349854 901.249268,340.028778 910.964233,335.740967 
z"/>
<path fill="#060606" opacity="1.000000" stroke="none" 
	d="
M678.943359,348.178284 
	C662.888000,342.716949 655.209778,327.536194 659.980164,311.363007 
	C664.406006,296.358002 680.390381,288.046234 696.702576,292.267609 
	C711.493652,296.095367 720.081177,309.573883 717.854553,325.466644 
	C715.823547,339.962463 702.701477,350.289917 687.179077,349.481079 
	C684.551025,349.344116 681.949768,348.691803 678.943359,348.178284 
M685.875305,338.040955 
	C696.392700,338.399017 703.001709,334.233643 705.502869,325.670380 
	C707.805969,317.785553 704.796143,309.109558 698.025696,305.195282 
	C691.459229,301.398895 684.543823,301.405396 678.198669,305.483307 
	C671.397766,309.854156 669.697327,316.785553 671.054321,324.327271 
	C672.432373,331.986115 677.348755,336.509033 685.875305,338.040955 
z"/>
<path fill="#060606" opacity="1.000000" stroke="none" 
	d="
M767.907837,139.952301 
	C780.585144,144.915970 786.925903,153.988739 787.053772,167.202774 
	C787.172913,179.515656 781.679382,188.630981 770.522400,193.894623 
	C756.756897,200.388931 739.144470,195.272720 731.812744,182.962708 
	C723.934692,169.735382 727.127808,152.546539 739.470337,143.745789 
	C748.016663,137.651871 757.584351,136.941422 767.907837,139.952301 
M768.889160,153.496613 
	C767.625671,152.703659 766.428467,151.768753 765.087341,151.141876 
	C758.644775,148.130310 750.095093,149.459961 745.058960,154.170044 
	C739.880493,159.013214 738.131348,167.490005 740.871704,174.462601 
	C743.536560,181.243103 749.525208,185.126266 757.287109,185.163300 
	C764.856140,185.199417 770.676758,181.999130 773.567505,175.026840 
	C776.751526,167.347260 775.712463,160.042679 768.889160,153.496613 
z"/>
<path fill="#080808" opacity="1.000000" stroke="none" 
	d="
M968.860535,157.936829 
	C973.306274,144.112244 983.991760,136.801147 996.754211,138.510925 
	C1008.887756,140.136475 1016.634277,148.669754 1017.878113,161.888733 
	C1018.063354,163.857681 1017.903870,165.859055 1017.903870,168.404510 
	C1005.322693,168.404510 992.777466,168.404510 980.254883,168.404510 
	C979.863831,185.462570 995.290649,189.698883 1016.485535,178.916641 
	C1018.722107,188.075638 1017.617126,190.897156 1009.132812,193.940598 
	C998.349487,197.808746 987.468811,198.599426 978.042786,190.561615 
	C967.994812,181.993484 966.181824,170.712860 968.860535,157.936829 
M1006.285767,159.822922 
	C1005.003601,152.145065 1000.338989,148.014038 993.261353,148.288345 
	C986.212646,148.561523 981.188599,153.361786 980.262512,160.701050 
	C988.858643,160.701050 997.454712,160.701050 1006.285767,159.822922 
z"/>
<path fill="#080808" opacity="1.000000" stroke="none" 
	d="
M1073.449341,155.633835 
	C1079.168579,143.361801 1088.295044,137.300293 1099.147339,138.326569 
	C1114.501465,139.778580 1123.755493,152.042770 1121.579712,168.538376 
	C1115.338013,168.538376 1109.036865,168.538391 1102.735718,168.538391 
	C1096.600220,168.538391 1090.464722,168.538376 1083.977661,168.538376 
	C1084.081665,174.772980 1086.430176,179.469986 1091.198120,182.725159 
	C1097.630615,187.116821 1107.468628,185.715424 1120.381104,178.940384 
	C1122.917969,187.558151 1121.763794,190.702026 1113.693848,193.721329 
	C1102.783813,197.803253 1091.749512,198.738098 1082.121826,190.625015 
	C1072.022583,182.114502 1070.203491,170.812759 1072.751221,158.426315 
	C1072.918823,157.611267 1073.102783,156.799591 1073.449341,155.633835 
M1084.067749,159.939667 
	C1084.346924,160.267014 1084.624512,160.878693 1084.905762,160.880386 
	C1093.310181,160.931213 1101.714844,160.921692 1110.137939,160.921692 
	C1109.662720,153.262009 1106.222046,149.428665 1099.378418,148.517609 
	C1092.275391,147.572037 1087.172729,151.124619 1084.067749,159.939667 
z"/>
<path fill="#070707" opacity="1.000000" stroke="none" 
	d="
M1000.782471,350.682739 
	C1007.333374,340.894745 1007.190674,331.882629 1000.886230,322.060150 
	C995.994751,314.439240 992.787659,305.736084 988.848938,297.505829 
	C988.090820,295.921661 987.411804,294.299652 986.716797,292.741241 
	C987.346313,292.403381 987.473694,292.279236 987.608459,292.270569 
	C998.676636,291.562653 998.687744,291.558044 1003.417664,301.448822 
	C1006.705933,308.324951 1009.958740,315.217957 1013.548706,322.780151 
	C1017.516052,314.208435 1021.479858,306.380707 1024.758057,298.275726 
	C1026.619995,293.672607 1028.901001,291.062836 1034.180054,292.097107 
	C1035.929077,292.439758 1037.801758,292.151154 1040.239624,292.151154 
	C1038.328125,296.454407 1036.640015,300.370117 1034.859619,304.243439 
	C1024.673218,326.403809 1014.328552,348.493134 1004.377991,370.758698 
	C1002.353760,375.288208 1000.181519,377.915344 994.935425,376.901062 
	C993.217529,376.568970 991.381287,376.848846 988.946045,376.848846 
	C993.000977,367.903168 996.823425,359.470306 1000.782471,350.682739 
z"/>
<path fill="#080808" opacity="1.000000" stroke="none" 
	d="
M820.641113,339.016876 
	C823.046204,339.630066 823.663025,343.657349 822.034607,345.507568 
	C816.898499,351.343323 807.803162,350.693085 803.660767,344.637970 
	C799.740173,346.207214 796.056519,348.275269 792.110107,349.129700 
	C785.250977,350.614777 779.761902,347.778534 777.047729,342.231201 
	C774.074768,336.154938 774.943054,328.333221 780.434692,324.595795 
	C785.808411,320.938538 792.216736,318.802551 798.167358,315.991241 
	C800.312317,314.977875 803.740173,315.655914 803.287903,311.404266 
	C802.840027,307.194031 801.440247,303.938751 796.978394,303.014832 
	C790.566956,301.687256 785.339050,304.481476 780.430481,308.145203 
	C779.400879,308.913666 778.418335,309.745026 776.816650,311.024689 
	C776.816650,306.941895 776.656616,303.469635 776.910217,300.027863 
	C776.990723,298.935272 777.952209,297.634155 778.886536,296.920746 
	C787.280884,290.510742 796.546936,289.424011 806.116272,293.564606 
	C812.429871,296.296478 814.763123,302.096313 814.945374,308.616302 
	C815.182495,317.098053 815.025574,325.590302 815.111938,334.077240 
	C815.131592,336.012207 815.453003,337.944092 815.701172,340.572937 
	C817.605835,339.983429 818.934753,339.572113 820.641113,339.016876 
M803.283936,334.981110 
	C803.283936,330.425079 803.283936,325.869049 803.283936,320.384735 
	C798.688965,322.528625 794.773315,323.921997 791.328796,326.070679 
	C786.853088,328.862549 785.686646,333.600433 787.965820,337.157013 
	C790.148315,340.562805 795.167969,341.446564 799.559814,338.994598 
	C800.930725,338.229279 802.000061,336.923889 803.283936,334.981110 
z"/>
<path fill="#080808" opacity="1.000000" stroke="none" 
	d="
M582.224426,304.058929 
	C582.580505,314.090302 582.811523,323.713928 583.104431,333.335663 
	C583.173035,335.587799 583.450745,337.833588 583.686035,340.749023 
	C586.426086,339.815155 588.410034,339.138947 590.393188,338.463440 
	C591.403564,345.412689 591.046387,346.016998 584.413391,348.579803 
	C578.762146,350.763245 574.915527,349.456146 571.650696,344.541840 
	C567.940125,346.106140 564.438110,348.179718 560.659058,349.048676 
	C553.289246,350.743317 547.667419,347.868500 544.932434,341.807037 
	C541.994446,335.295654 543.187012,327.895020 549.133850,323.975372 
	C554.297852,320.571625 560.418884,318.625397 566.099548,315.997253 
	C568.241516,315.006256 571.710510,315.733429 571.289368,311.471985 
	C570.874207,307.270874 569.502686,303.972900 565.045715,303.027527 
	C558.644409,301.669800 553.400330,304.438110 548.488159,308.102844 
	C547.438843,308.885681 546.446167,309.744537 545.357300,310.625031 
	C543.323792,298.403259 546.581116,293.763306 558.477844,291.711334 
	C570.598572,289.620728 578.773743,293.748779 582.224426,304.058929 
M571.283936,334.981110 
	C571.283936,330.425079 571.283936,325.869049 571.283936,320.384705 
	C566.688965,322.528625 562.773254,323.921997 559.328735,326.070648 
	C554.853088,328.862518 553.686646,333.600433 555.965820,337.157043 
	C558.148315,340.562805 563.167969,341.446533 567.559753,338.994537 
	C568.930664,338.229218 570.000061,336.923859 571.283936,334.981110 
z"/>
<path fill="#080808" opacity="1.000000" stroke="none" 
	d="
M636.580933,142.543671 
	C642.663330,138.910339 648.853821,137.528473 655.538147,138.572189 
	C665.331665,140.101410 670.631409,145.772598 670.948730,155.688171 
	C671.220154,164.170090 671.024292,172.666229 671.113586,181.155258 
	C671.133911,183.085526 671.477478,185.012390 671.743713,187.648026 
	C674.305176,186.801285 676.265381,186.153305 678.223633,185.505966 
	C679.585449,192.165970 679.192261,192.861206 672.560486,195.497757 
	C666.753357,197.806458 662.890137,196.518112 659.835938,191.633636 
	C655.772644,193.214691 651.930176,195.312607 647.828308,196.170212 
	C641.000061,197.597855 635.602356,194.634033 632.971680,188.951630 
	C630.149048,182.854584 630.935364,175.416336 636.286133,171.735413 
	C641.642212,168.050812 648.023438,165.849091 653.978149,163.045868 
	C656.277832,161.963257 659.867920,162.634323 659.265991,158.101288 
	C658.702759,153.859573 657.169678,150.812744 652.680481,149.961151 
	C646.622803,148.812012 641.672607,151.405884 636.964294,154.710617 
	C635.751038,155.562210 634.662842,156.592041 632.513855,158.370285 
	C633.937500,152.455811 629.974182,146.611557 636.580933,142.543671 
M642.947266,180.483185 
	C643.221497,185.568558 646.442566,187.588776 650.953918,187.262177 
	C654.505188,187.005066 658.687134,186.335358 659.183960,181.717819 
	C659.657654,177.314774 659.286011,172.820740 659.286011,167.692688 
	C652.579529,170.756699 644.790405,171.023209 642.947266,180.483185 
z"/>
<path fill="#090909" opacity="1.000000" stroke="none" 
	d="
M485.908569,324.999939 
	C485.925018,304.529449 485.940186,284.558960 485.970490,264.588501 
	C485.970947,264.284851 486.158905,263.981476 486.347137,263.412781 
	C490.188599,263.412781 494.121094,263.412781 498.525818,263.412781 
	C498.525818,287.695435 498.525818,312.066071 498.525818,336.900055 
	C511.205872,336.900055 523.433289,336.900055 535.923828,336.900055 
	C535.923828,340.940033 535.923828,344.516724 535.923828,348.319092 
	C519.361450,348.319092 502.957611,348.319092 485.908569,348.319092 
	C485.908569,340.657288 485.908569,333.078613 485.908569,324.999939 
z"/>
<path fill="#060606" opacity="1.000000" stroke="none" 
	d="
M831.208130,170.885986 
	C838.462402,182.766891 833.088379,194.113892 819.680298,196.186981 
	C812.255188,197.334976 805.497131,195.341995 799.043152,192.030548 
	C798.046814,191.519363 797.186768,189.865463 797.080627,188.667648 
	C796.806274,185.571121 796.988708,182.434143 796.988708,179.328079 
	C801.703918,181.404236 806.091797,183.616180 810.688843,185.233536 
	C812.757629,185.961395 815.460938,186.116577 817.478577,185.404526 
	C819.397766,184.727173 821.811340,182.769257 822.135376,181.026352 
	C822.443481,179.368713 820.784058,176.649033 819.193726,175.469162 
	C814.939819,172.313187 810.072083,169.984680 805.816650,166.830353 
	C803.223755,164.908417 800.759216,162.375687 799.197937,159.580551 
	C794.268127,150.754898 798.508423,141.495087 808.344116,139.079880 
	C815.736023,137.264755 822.899841,138.333801 829.652344,141.679840 
	C830.804016,142.250549 831.895569,143.963150 832.069885,145.273849 
	C832.438293,148.044479 832.182190,150.898148 832.182190,154.093689 
	C828.717224,152.532852 825.698059,150.776627 822.443481,149.827576 
	C819.657410,149.015167 816.570312,148.751282 813.678772,148.992691 
	C812.268616,149.110428 810.206787,150.737961 809.886597,152.038269 
	C809.549988,153.405548 810.492126,155.770630 811.666321,156.693069 
	C814.650391,159.037384 818.192505,160.656433 821.293884,162.870270 
	C824.651245,165.266815 827.762512,168.008133 831.208130,170.885986 
z"/>
<path fill="#070707" opacity="1.000000" stroke="none" 
	d="
M567.930420,139.148865 
	C570.394409,139.148865 572.374390,139.148865 574.720154,139.148865 
	C574.720154,142.713928 574.720154,146.067535 574.720154,149.683533 
	C569.323059,149.683533 564.035645,149.683533 558.463074,149.683533 
	C558.463074,159.651779 558.189209,169.385666 558.590149,179.091690 
	C558.764465,183.311325 561.987549,185.644333 566.280518,185.061310 
	C570.144592,184.536514 573.914917,183.320526 577.843323,182.381485 
	C577.830994,182.360458 578.116760,182.622955 578.124817,182.893768 
	C578.427917,193.035309 577.757812,193.991287 569.017151,195.979126 
	C559.579102,198.125595 551.145691,194.920624 548.457031,187.321091 
	C546.941467,183.037338 546.573303,178.229996 546.365234,173.627899 
	C546.019653,165.983597 546.220642,158.314651 546.175598,150.656174 
	C546.174866,150.533173 545.971985,150.411346 545.523010,149.905045 
	C542.812683,149.905045 539.750549,149.905045 536.894348,149.905045 
	C543.875488,142.790070 550.768311,135.765167 557.777954,128.621140 
	C557.777954,131.764648 557.777954,135.143555 557.777954,139.148865 
	C561.261353,139.148865 564.353943,139.148865 567.930420,139.148865 
z"/>
<path fill="#070707" opacity="1.000000" stroke="none" 
	d="
M846.288818,331.105835 
	C848.291992,337.413483 850.277039,338.885681 856.200745,337.937653 
	C859.413513,337.423553 862.502747,336.137726 865.707092,335.182281 
	C865.792664,335.310455 866.107117,335.563507 866.117126,335.827972 
	C866.492676,345.793854 865.659668,346.996399 857.073547,348.969818 
	C847.630310,351.140289 839.188232,347.958954 836.478760,340.360718 
	C834.952332,336.080200 834.561890,331.268829 834.368835,326.666809 
	C834.042664,318.890930 834.279297,311.091461 834.279297,302.925354 
	C830.829468,302.925354 827.764099,302.925354 824.912720,302.925354 
	C831.894043,295.818726 838.792480,288.796570 845.772766,281.691010 
	C845.772766,284.760773 845.772766,288.140045 845.772766,291.949951 
	C851.582642,291.949951 856.984314,291.949951 862.734131,291.949951 
	C862.734131,295.738251 862.734131,299.093079 862.734131,302.698303 
	C857.286011,302.698303 851.992981,302.698303 846.235840,302.698303 
	C846.235840,312.178925 846.235840,321.429047 846.288818,331.105835 
z"/>
<path fill="#070707" opacity="1.000000" stroke="none" 
	d="
M718.899048,183.049850 
	C720.012390,182.567673 720.742981,182.216980 721.508606,181.849457 
	C723.544678,191.398163 721.827881,194.110321 712.659912,196.038376 
	C700.028259,198.694870 691.551086,192.696838 690.765930,179.717117 
	C690.175842,169.961975 690.649353,160.142487 690.649353,149.979248 
	C686.876343,149.979248 683.799805,149.979248 680.723206,149.979248 
	C680.404968,149.542191 680.086670,149.105133 679.768433,148.668076 
	C683.371277,145.375992 687.073303,142.184616 690.549377,138.763733 
	C694.094543,135.274902 697.417725,131.560532 701.726868,127.005341 
	C701.726868,131.731781 701.726868,135.100174 701.726868,138.912460 
	C707.542664,138.912460 712.943115,138.912460 718.713440,138.912460 
	C718.713440,142.703491 718.713440,146.058838 718.713440,149.680298 
	C713.330933,149.680298 708.038147,149.680298 702.467468,149.680298 
	C702.467468,159.658783 702.191284,169.399658 702.595581,179.112213 
	C702.771545,183.340668 706.003784,185.555695 710.313049,185.077820 
	C713.083496,184.770584 715.784302,183.835175 718.899048,183.049850 
z"/>
<path fill="#090909" opacity="1.000000" stroke="none" 
	d="
M764.576416,293.328217 
	C766.545654,294.628082 768.199097,295.723785 770.363525,297.158173 
	C768.345703,300.623016 766.411804,303.943695 764.292358,307.582947 
	C763.345154,306.808899 762.749695,306.281830 762.113953,305.808868 
	C754.448486,300.106232 746.176514,302.459991 743.151062,311.576904 
	C742.028137,314.960693 741.865906,318.755676 741.785950,322.374634 
	C741.598755,330.848846 741.726074,339.329987 741.726074,348.173462 
	C737.768372,348.173462 734.049500,348.173462 730.154297,348.173462 
	C730.154297,329.619812 730.154297,311.191437 730.154297,292.453674 
	C733.811096,292.453674 737.390259,292.453674 741.526367,292.453674 
	C741.526367,295.414001 741.526367,298.459045 741.526367,302.893250 
	C748.082642,295.024445 753.830872,287.874115 764.576416,293.328217 
z"/>
<path fill="#090909" opacity="1.000000" stroke="none" 
	d="
M981.073853,301.132568 
	C979.807129,303.313568 978.706421,305.161255 977.545959,307.109161 
	C977.037781,306.977600 976.478882,306.999390 976.182922,306.731079 
	C972.360535,303.265198 968.080383,301.243011 963.027771,303.588013 
	C957.882874,305.975861 955.373291,310.568420 955.098389,315.980804 
	C954.676758,324.283936 954.815796,332.615753 954.729553,340.935547 
	C954.705566,343.244385 954.725952,345.553680 954.725952,348.200500 
	C950.842224,348.200500 947.261597,348.200500 943.327393,348.200500 
	C943.327393,329.752136 943.327393,311.227783 943.327393,292.423004 
	C946.873535,292.423004 950.450928,292.423004 954.600708,292.423004 
	C954.600708,295.464783 954.600708,298.505432 954.600708,303.058319 
	C959.496643,296.805145 963.594604,290.987549 970.670898,291.440430 
	C974.973145,291.715729 979.113403,294.521881 983.786011,296.373260 
	C982.519348,298.575165 981.879639,299.687225 981.073853,301.132568 
z"/>
<path fill="#090909" opacity="1.000000" stroke="none" 
	d="
M597.610229,194.340302 
	C593.811523,195.117432 590.108276,195.460159 586.176758,195.824005 
	C586.176758,176.661041 586.176758,158.244110 586.176758,139.485596 
	C589.738647,139.485596 593.313171,139.485596 597.433716,139.485596 
	C597.433716,142.367111 597.433716,145.422089 597.433716,148.089600 
	C602.104065,144.871841 606.233337,140.989319 611.129272,138.923737 
	C616.883301,136.496140 621.438660,140.746765 626.299683,144.225800 
	C624.364868,147.578125 622.499634,150.809738 620.580444,154.134979 
	C620.018921,153.979584 619.463379,153.989868 619.163879,153.718063 
	C615.343140,150.250839 611.063110,148.246185 606.017029,150.593994 
	C600.878418,152.984863 598.320190,157.575806 598.103027,162.980972 
	C597.689331,173.277985 597.807983,183.596375 597.610229,194.340302 
z"/>
<path fill="#090909" opacity="1.000000" stroke="none" 
	d="
M1040.726196,169.121063 
	C1040.725952,178.049438 1040.725952,186.494339 1040.725952,195.237061 
	C1036.752075,195.237061 1033.172241,195.237061 1029.283691,195.237061 
	C1029.283691,176.703552 1029.283691,158.189209 1029.283691,139.408997 
	C1032.902222,139.408997 1036.476562,139.408997 1040.618896,139.408997 
	C1040.618896,142.481766 1040.618896,145.507599 1040.618896,150.051743 
	C1045.494995,143.792526 1049.598389,137.995895 1056.666260,138.440338 
	C1060.964478,138.710602 1065.103271,141.514343 1069.814453,143.378143 
	C1067.294800,147.706009 1065.408081,150.947021 1063.552490,154.134247 
	C1063.025024,154.035736 1062.608032,154.085907 1062.405884,153.901169 
	C1058.626709,150.445709 1054.347412,148.234665 1049.287964,150.451111 
	C1043.926880,152.799713 1041.652100,157.560760 1041.014404,163.161591 
	C1040.807983,164.974350 1040.816284,166.811554 1040.726196,169.121063 
z"/>
<!-- <path fill="#FDFEFE" opacity="1.000000" stroke="none" 
	d="
M75.967041,160.026459 
	C93.834740,119.755447 122.266945,89.918617 161.275208,70.463013 
	C225.575104,38.393085 303.165161,48.202816 357.771393,94.965759 
	C391.527283,123.873161 412.628204,160.329346 418.511017,204.268600 
	C427.110260,268.496765 406.803650,322.853485 357.929810,365.767212 
	C329.151184,391.036346 295.288757,405.602203 257.018555,408.109680 
	C181.488785,413.058533 123.845016,382.541901 84.653275,318.008057 
	C69.531807,293.108734 62.488693,265.501862 61.642574,236.237823 
	C60.879471,209.844894 65.430466,184.606766 75.967041,160.026459 
M97.147011,290.310547 
	C125.261276,356.945770 196.252457,395.947021 269.373993,383.126251 
	C349.384094,369.097687 406.916748,291.008820 395.663208,210.456268 
	C383.519226,123.529854 303.322205,63.725094 216.943359,77.180786 
	C117.359566,92.693497 59.077824,195.809845 97.147011,290.310547 
z"/> -->
<!-- <path fill="#FDFDFD" opacity="1.000000" stroke="none" 
	d="
M637.141174,324.482971 
	C634.698303,337.277679 623.591492,340.192963 613.172180,337.502441 
	C612.127380,337.232635 610.854919,335.273010 610.823242,334.067780 
	C610.613892,326.104614 610.588379,318.129425 610.828857,310.168030 
	C610.873718,308.682831 612.053833,306.793701 613.290649,305.860626 
	C617.992249,302.313721 623.317993,301.402527 628.723572,304.010895 
	C634.925049,307.003357 637.137573,312.609558 637.509399,319.103455 
	C637.603149,320.740784 637.317749,322.399841 637.141174,324.482971 
z"/> -->
<!-- <path fill="#FDFDFD" opacity="1.000000" stroke="none" 
	d="
M884.176514,171.516373 
	C881.227356,183.511826 871.531860,188.853821 860.497070,184.717163 
	C859.269775,184.257080 857.870300,182.256088 857.836060,180.936356 
	C857.602661,171.945633 857.713684,162.945953 857.713623,153.949173 
	C857.713623,152.796646 857.713562,151.644119 857.713562,150.532822 
	C875.226440,146.731384 886.001953,155.154449 884.176514,171.516373 
z"/> -->
<!-- <path fill="#FCFCFC" opacity="1.000000" stroke="none" 
	d="
M910.612183,335.901398 
	C901.249268,340.028778 892.438538,338.349854 887.241882,331.675537 
	C882.389221,325.443054 882.473328,314.905426 887.442932,308.904633 
	C892.486877,302.814148 899.158203,301.513245 906.376038,303.229095 
	C913.081543,304.823151 917.469360,309.466125 918.752808,316.196808 
	C920.268677,324.146729 918.106201,331.039368 910.612183,335.901398 
z"/> -->
<!-- <path fill="#FCFCFC" opacity="1.000000" stroke="none" 
	d="
M685.444336,338.013092 
	C677.348755,336.509033 672.432373,331.986115 671.054321,324.327271 
	C669.697327,316.785553 671.397766,309.854156 678.198669,305.483307 
	C684.543823,301.405396 691.459229,301.398895 698.025696,305.195282 
	C704.796143,309.109558 707.805969,317.785553 705.502869,325.670380 
	C703.001709,334.233643 696.392700,338.399017 685.444336,338.013092 
z"/> -->
<!-- <path fill="#FCFCFC" opacity="1.000000" stroke="none" 
	d="
M769.172241,153.740417 
	C775.712463,160.042679 776.751526,167.347260 773.567505,175.026840 
	C770.676758,181.999130 764.856140,185.199417 757.287109,185.163300 
	C749.525208,185.126266 743.536560,181.243103 740.871704,174.462601 
	C738.131348,167.490005 739.880493,159.013214 745.058960,154.170044 
	C750.095093,149.459961 758.644775,148.130310 765.087341,151.141876 
	C766.428467,151.768753 767.625671,152.703659 769.172241,153.740417 
z"/> -->
<!-- <path fill="#FCFCFC" opacity="1.000000" stroke="none" 
	d="
M1006.168335,160.261993 
	C997.454712,160.701050 988.858643,160.701050 980.262451,160.704590 
	C981.188599,153.361786 986.212646,148.561523 993.261353,148.288345 
	C1000.338989,148.014038 1005.003601,152.145065 1006.168335,160.261993 
z"/> -->
<!-- <path fill="#FCFCFC" opacity="1.000000" stroke="none" 
	d="
M1084.114502,159.525772 
	C1087.172729,151.124619 1092.275391,147.572037 1099.378418,148.517609 
	C1106.222046,149.428665 1109.662720,153.262009 1110.137939,160.921692 
	C1101.714844,160.921692 1093.310181,160.931213 1084.905762,160.880386 
	C1084.624512,160.878693 1084.346924,160.267014 1084.114502,159.525772 
z"/> -->
<!-- <path fill="#FAFAFA" opacity="1.000000" stroke="none" 
	d="
M803.245728,335.423401 
	C802.000061,336.923889 800.930725,338.229279 799.559814,338.994598 
	C795.167969,341.446564 790.148315,340.562805 787.965820,337.157013 
	C785.686646,333.600433 786.853088,328.862549 791.328796,326.070679 
	C794.773315,323.921997 798.688965,322.528625 803.283936,320.384735 
	C803.283936,325.869049 803.283936,330.425079 803.245728,335.423401 
z"/> -->
<!-- <path fill="#FAFAFA" opacity="1.000000" stroke="none" 
	d="
M571.245728,335.423401 
	C570.000061,336.923859 568.930664,338.229218 567.559753,338.994537 
	C563.167969,341.446533 558.148315,340.562805 555.965820,337.157043 
	C553.686646,333.600433 554.853088,328.862518 559.328735,326.070648 
	C562.773254,323.921997 566.688965,322.528625 571.283936,320.384705 
	C571.283936,325.869049 571.283936,330.425079 571.245728,335.423401 
z"/> -->
<!-- <path fill="#FAFAFA" opacity="1.000000" stroke="none" 
	d="
M642.971802,180.087067 
	C644.790405,171.023209 652.579529,170.756699 659.286011,167.692688 
	C659.286011,172.820740 659.657654,177.314774 659.183960,181.717819 
	C658.687134,186.335358 654.505188,187.005066 650.953918,187.262177 
	C646.442566,187.588776 643.221497,185.568558 642.971802,180.087067 
z"/> -->
<path fill="#7961A8" opacity="1.000000" stroke="none" 
	d="
M97.017235,289.951538 
	C59.077824,195.809845 117.359566,92.693497 216.943359,77.180786 
	C303.322205,63.725094 383.519226,123.529854 395.663208,210.456268 
	C406.916748,291.008820 349.384094,369.097687 269.373993,383.126251 
	C196.252457,395.947021 125.261276,356.945770 97.017235,289.951538 
M329.563263,127.930168 
	C297.965546,101.767876 261.880432,91.076767 221.168610,96.792030 
	C145.509201,107.413338 93.641586,179.208832 107.127090,254.491684 
	C118.261047,316.646973 172.772736,363.973846 235.846237,365.750122 
	C271.597961,366.756927 303.290436,355.638641 330.538391,332.215576 
	C392.530792,278.925354 392.334991,181.214554 329.563263,127.930168 
z"/>
<!-- <path fill="#FEFDFE" opacity="1.000000" stroke="none" 
	d="
M329.828491,128.165543 
	C392.334991,181.214554 392.530792,278.925354 330.538391,332.215576 
	C303.290436,355.638641 271.597961,366.756927 235.846237,365.750122 
	C172.772736,363.973846 118.261047,316.646973 107.127090,254.491684 
	C93.641586,179.208832 145.509201,107.413338 221.168610,96.792030 
	C261.880432,91.076767 297.965546,101.767876 329.828491,128.165543 
M311.179932,305.669617 
	C341.655762,275.747681 351.820312,239.903915 339.037384,199.267914 
	C323.665161,150.400681 277.050751,122.218010 226.132156,128.948349 
	C159.857285,137.708466 119.168755,209.784027 146.032639,270.836487 
	C174.739380,336.077148 257.497375,353.830475 311.179932,305.669617 
z"/> -->
<path fill="#542D74" opacity="1.000000" stroke="none" 
	d="
M310.917694,305.910583 
	C257.497375,353.830475 174.739380,336.077148 146.032639,270.836487 
	C119.168755,209.784027 159.857285,137.708466 226.132156,128.948349 
	C277.050751,122.218010 323.665161,150.400681 339.037384,199.267914 
	C351.820312,239.903915 341.655762,275.747681 310.917694,305.910583 
M322.997101,245.227692 
	C326.245270,225.477158 323.420349,206.720535 313.251587,189.377914 
	C292.947357,154.749573 251.333496,139.054230 214.552872,151.949097 
	C175.217880,165.739502 152.877426,202.496460 158.817764,243.650574 
	C165.130753,287.386169 208.828354,319.534760 252.478500,312.557343 
	C288.894165,306.736359 314.269226,282.772736 322.997101,245.227692 
z"/>
<!-- <path fill="#FEFEFF" opacity="1.000000" stroke="none" 
	d="
M322.935059,245.653046 
	C314.269226,282.772736 288.894165,306.736359 252.478500,312.557343 
	C208.828354,319.534760 165.130753,287.386169 158.817764,243.650574 
	C152.877426,202.496460 175.217880,165.739502 214.552872,151.949097 
	C251.333496,139.054230 292.947357,154.749573 313.251587,189.377914 
	C323.420349,206.720535 326.245270,225.477158 322.935059,245.653046 
z"/> -->
</svg>