<svg version="1.1" id="Layer_1" xmlns="http://www.w3.org/2000/svg" xmlns:xlink="http://www.w3.org/1999/xlink" x="0px" y="0px"
	 width="200%" viewBox="0 0 6405 7650" enable-background="new 0 0 6405 7650" xml:space="preserve">

<path fill="#0166BD" opacity="1.000000" stroke="none" 
	d="
M4171.562988,440.506683 
	C4315.068359,494.240204 4457.088867,547.506653 4599.103027,600.789917 
	C5002.103516,751.995056 5405.097656,903.218872 5808.105469,1054.404785 
	C5877.868652,1080.576050 5947.660645,1106.670898 6017.491699,1132.661011 
	C6060.288086,1148.589355 6100.238770,1169.394531 6134.389160,1200.197388 
	C6205.668457,1264.489990 6244.527344,1344.268188 6248.692383,1440.492676 
	C6249.124512,1450.477661 6249.166992,1460.485352 6249.167480,1470.482422 
	C6249.187988,2245.784668 6249.182129,3021.086914 6249.191895,3796.389160 
	C6249.192871,3862.401611 6248.306641,3928.413574 6243.078125,3994.229980 
	C6239.280273,4042.036133 6233.925781,4089.725342 6228.842285,4137.421387 
	C6223.192383,4190.434570 6214.553711,4243.015137 6204.898926,4295.431152 
	C6185.099121,4402.925293 6158.843750,4508.835938 6126.506836,4613.230469 
	C6062.857910,4818.714355 5977.930664,5015.140625 5874.662598,5203.731445 
	C5782.350098,5372.316406 5677.674805,5532.905762 5562.228027,5686.521973 
	C5437.514648,5852.467285 5302.166992,6009.284180 5157.847656,6158.443848 
	C5048.390137,6271.572754 4934.293457,6379.809570 4816.553711,6484.256348 
	C4617.409180,6660.916504 4408.288086,6824.970703 4190.906738,6978.503418 
	C3950.239502,7148.483398 3701.588379,7305.783691 3442.557617,7446.423828 
	C3415.074951,7461.345703 3387.534668,7476.329102 3359.149902,7489.391113 
	C3263.404053,7533.450195 3166.774170,7534.036133 3071.435303,7489.257812 
	C3022.700439,7466.368164 2975.605225,7439.846680 2928.503174,7413.646973 
	C2671.510254,7270.704102 2424.665527,7111.799316 2185.920898,6940.209473 
	C1946.428101,6768.083008 1717.638916,6582.813965 1501.299927,6382.285645 
	C1344.701660,6237.132812 1196.013062,6084.304199 1057.180786,5922.022461 
	C927.059021,5769.922363 806.306946,5610.726074 697.791565,5442.436035 
	C575.510132,5252.796387 469.751373,5054.423340 385.885864,4844.766602 
	C335.152557,4717.937500 292.637939,4588.352051 260.132660,4455.560547 
	C241.439636,4379.195312 225.369186,4302.300293 213.291031,4224.633301 
	C203.975571,4164.731445 196.613113,4104.573242 191.290009,4044.130127 
	C183.094223,3951.068359 180.659348,3857.869873 180.674866,3764.510986 
	C180.802002,2999.875000 180.761093,2235.239014 180.699600,1470.602905 
	C180.696808,1435.821045 182.690674,1401.250244 192.239166,1367.668579 
	C221.889572,1263.388916 285.550568,1187.884766 385.183289,1144.355225 
	C422.328552,1128.126587 460.769287,1114.831177 498.762390,1100.579712 
	C1009.532471,908.986328 1520.329346,717.464539 2031.116211,525.915894 
	C2383.062744,393.933533 2735.021973,261.985077 3086.920898,129.876266 
	C3124.005859,115.954056 3162.028564,106.796539 3201.621094,105.182961 
	C3247.439209,103.315659 3291.827393,110.860107 3334.795410,126.976051 
	C3431.969971,163.423004 3529.206543,199.705048 3626.387695,236.134674 
	C3807.628418,304.075226 3988.847168,372.073120 4171.562988,440.506683 
M855.471375,1933.999878 
	C855.471375,2553.952637 855.593384,3173.905273 855.351501,3793.858154 
	C855.311157,3897.352539 861.371338,4000.346680 876.809998,4102.681152 
	C889.633484,4187.681152 907.707031,4271.602539 930.680786,4354.472656 
	C972.079041,4503.803223 1029.077759,4647.071289 1098.028687,4785.677734 
	C1180.738525,4951.941895 1279.362305,5108.424805 1389.615601,5257.671875 
	C1528.161865,5445.218262 1682.940674,5618.608398 1848.984619,5782.053711 
	C2021.161865,5951.536621 2204.152832,6108.679199 2395.554688,6255.943848 
	C2650.887207,6452.395996 2918.066895,6631.265137 3197.590820,6791.569824 
	C3203.296875,6794.841309 3209.170654,6797.820312 3214.088623,6800.464355 
	C3216.662842,6799.856934 3218.081299,6799.803711 3219.212402,6799.205566 
	C3223.326660,6797.029297 3227.357178,6794.693359 3231.397217,6792.379395 
	C3430.366211,6678.415527 3623.054199,6554.633789 3810.077881,6422.008789 
	C4031.036133,6265.319336 4242.538086,6096.858398 4442.360840,5913.863770 
	C4595.914551,5773.242676 4741.192871,5624.620605 4875.856445,5465.729004 
	C5007.074707,5310.902344 5126.500488,5147.607422 5230.236328,4972.999512 
	C5323.016113,4816.833984 5401.104492,4653.802734 5460.252930,4481.917969 
	C5497.142578,4374.717285 5525.528809,4265.322266 5545.149902,4153.597656 
	C5557.728516,4081.976074 5566.482910,4009.915039 5571.084473,3937.438477 
	C5574.165039,3888.916260 5575.273926,3840.195801 5575.296387,3791.563477 
	C5575.568359,3206.284668 5575.472656,2621.006104 5575.472656,2035.727417 
	C5575.472656,1926.404297 5575.482422,1817.081055 5575.447754,1707.757935 
	C5575.445801,1701.218018 5575.090820,1694.677979 5574.889160,1687.761841 
	C5568.713867,1685.136230 5563.344727,1682.610107 5557.807129,1680.533691 
	C5276.270020,1574.975098 4994.713379,1469.470947 4713.170898,1363.926636 
	C4288.982910,1204.907593 3864.804443,1045.863281 3440.622070,886.830078 
	C3369.612061,860.207214 3298.548828,833.725464 3227.660645,806.782349 
	C3218.919189,803.459961 3211.165527,802.411682 3202.848389,806.916016 
	C3200.540527,808.165833 3197.815186,808.624451 3195.323975,809.558838 
	C2986.666260,887.817322 2778.020264,966.106812 2569.357422,1044.351562 
	C2003.804443,1256.423218 1438.244019,1468.474121 872.698853,1680.566284 
	C867.189697,1682.632324 861.847900,1685.144531 855.471375,1687.855225 
	C855.471375,1768.860352 855.471375,1849.430054 855.471375,1933.999878 
z"/>
<path fill="none" opacity="1.000000" stroke="none" 
	d="
M855.471375,1931.999756 
	C855.471375,1849.430054 855.471375,1768.860352 855.471375,1687.855225 
	C861.847900,1685.144531 867.189697,1682.632324 872.698853,1680.566284 
	C1438.244019,1468.474121 2003.804443,1256.423218 2569.357422,1044.351562 
	C2778.020264,966.106812 2986.666260,887.817322 3195.323975,809.558838 
	C3197.815186,808.624451 3200.540527,808.165833 3202.848389,806.916016 
	C3211.165527,802.411682 3218.919189,803.459961 3227.660645,806.782349 
	C3298.548828,833.725464 3369.612061,860.207214 3440.622070,886.830078 
	C3864.804443,1045.863281 4288.982910,1204.907593 4713.170898,1363.926636 
	C4994.713379,1469.470947 5276.270020,1574.975098 5557.807129,1680.533691 
	C5563.344727,1682.610107 5568.713867,1685.136230 5574.889160,1687.761841 
	C5575.090820,1694.677979 5575.445801,1701.218018 5575.447754,1707.757935 
	C5575.482422,1817.081055 5575.472656,1926.404297 5575.472656,2035.727417 
	C5575.472656,2621.006104 5575.568359,3206.284668 5575.296387,3791.563477 
	C5575.273926,3840.195801 5574.165039,3888.916260 5571.084473,3937.438477 
	C5566.482910,4009.915039 5557.728516,4081.976074 5545.149902,4153.597656 
	C5525.528809,4265.322266 5497.142578,4374.717285 5460.252930,4481.917969 
	C5401.104492,4653.802734 5323.016113,4816.833984 5230.236328,4972.999512 
	C5126.500488,5147.607422 5007.074707,5310.902344 4875.856445,5465.729004 
	C4741.192871,5624.620605 4595.914551,5773.242676 4442.360840,5913.863770 
	C4242.538086,6096.858398 4031.036133,6265.319336 3810.077881,6422.008789 
	C3623.054199,6554.633789 3430.366211,6678.415527 3231.397217,6792.379395 
	C3227.357178,6794.693359 3223.326660,6797.029297 3219.212402,6799.205566 
	C3218.081299,6799.803711 3216.662842,6799.856934 3214.088623,6800.464355 
	C3209.170654,6797.820312 3203.296875,6794.841309 3197.590820,6791.569824 
	C2918.066895,6631.265137 2650.887207,6452.395996 2395.554688,6255.943848 
	C2204.152832,6108.679199 2021.161865,5951.536621 1848.984619,5782.053711 
	C1682.940674,5618.608398 1528.161865,5445.218262 1389.615601,5257.671875 
	C1279.362305,5108.424805 1180.738525,4951.941895 1098.028687,4785.677734 
	C1029.077759,4647.071289 972.079041,4503.803223 930.680786,4354.472656 
	C907.707031,4271.602539 889.633484,4187.681152 876.809998,4102.681152 
	C861.371338,4000.346680 855.311157,3897.352539 855.351501,3793.858154 
	C855.593384,3173.905273 855.471375,2553.952637 855.471375,1931.999756 
M3884.152832,2441.257324 
	C3883.019287,2440.618164 3881.885986,2439.979248 3880.460693,2439.403076 
	C3880.460693,2439.403076 3880.566162,2439.124023 3879.806396,2436.645020 
	C3876.028320,2433.100342 3872.412109,2429.359619 3868.427246,2426.064697 
	C3864.323486,2422.671387 3860.779053,2418.197510 3852.687744,2415.832520 
	C3861.591797,2427.985840 3868.837646,2437.875732 3877.151367,2450.388672 
	C3913.153809,2517.168457 3920.113281,2588.202393 3907.316406,2661.840820 
	C3904.116211,2680.256104 3896.969727,2697.615479 3887.266602,2713.795166 
	C3870.061768,2742.483398 3845.477783,2762.149170 3813.717041,2771.999023 
	C3775.719482,2783.782715 3737.547607,2785.003174 3700.422363,2768.342041 
	C3669.791016,2754.595215 3647.517334,2732.831543 3638.542969,2699.443115 
	C3638.001465,2697.429199 3638.697021,2695.083008 3638.925049,2690.914795 
	C3644.126465,2694.137939 3647.463135,2696.141113 3650.735840,2698.243896 
	C3672.212402,2712.043701 3695.698242,2717.384277 3721.141846,2716.354248 
	C3770.365723,2714.361328 3807.595947,2688.337158 3824.655762,2641.981201 
	C3838.973633,2603.075439 3839.006836,2563.675537 3825.425537,2524.493652 
	C3811.025879,2482.951416 3782.478760,2453.002686 3746.188721,2429.706299 
	C3718.443115,2411.895264 3688.064209,2400.275635 3656.277832,2391.993408 
	C3624.555420,2383.728027 3592.084717,2379.968262 3559.620117,2376.912598 
	C3503.864746,2371.665283 3447.918213,2369.083252 3391.903320,2368.708496 
	C3307.248535,2368.142090 3222.594238,2367.380371 3137.983154,2371.581299 
	C3092.717773,2373.828613 3047.410156,2375.214600 3002.128906,2377.157715 
	C2975.494629,2378.300537 2948.867676,2379.651367 2922.252930,2381.180176 
	C2915.208984,2381.585205 2907.752930,2380.648193 2900.144775,2385.312988 
	C2903.323242,2389.515625 2905.732422,2393.418945 2908.827393,2396.669434 
	C2922.723389,2411.264648 2938.736328,2423.111328 2956.431641,2432.747314 
	C2978.183594,2444.593018 3001.209961,2453.204834 3024.880127,2460.282715 
	C3070.343262,2473.877441 3117.095215,2480.956299 3163.864014,2487.968750 
	C3208.652588,2494.684326 3253.518555,2500.926758 3298.205566,2508.260498 
	C3324.525635,2512.579590 3350.293213,2519.494873 3374.378174,2531.521484 
	C3376.616699,2532.639404 3379.415771,2533.388428 3377.239502,2537.472900 
	C3302.402588,2533.732178 3227.332520,2531.589355 3153.304932,2553.744385 
	C3152.739014,2560.509033 3152.405518,2566.430664 3151.722656,2572.311768 
	C3149.315430,2593.049072 3144.030029,2612.874756 3132.492432,2630.596191 
	C3119.423096,2650.669678 3101.029053,2660.660156 3076.912354,2659.677246 
	C3053.525146,2658.724121 3032.649658,2650.967041 3014.256836,2636.523438 
	C2996.727295,2622.758057 2983.119385,2605.578125 2971.258057,2586.900391 
	C2957.291504,2564.907715 2945.274902,2541.848389 2935.494141,2517.743652 
	C2920.471924,2480.722412 2906.146973,2443.418701 2891.495850,2406.246826 
	C2888.608154,2398.920166 2885.582764,2391.647705 2882.487061,2384.020508 
	C2876.401367,2384.020508 2871.116211,2383.713135 2865.877441,2384.073730 
	C2842.609131,2385.675049 2819.347168,2387.383057 2796.094971,2389.208252 
	C2731.656494,2394.265869 2667.219971,2399.351562 2602.790771,2404.528809 
	C2574.228760,2406.823730 2545.670898,2409.194824 2517.141846,2411.863525 
	C2501.787598,2413.299561 2486.900635,2416.947021 2473.238037,2424.409668 
	C2457.312988,2433.108398 2448.814209,2446.600098 2448.207520,2464.816650 
	C2448.052734,2469.467285 2448.171387,2474.159668 2448.608398,2478.791016 
	C2450.047607,2494.047852 2451.688721,2509.285889 2453.256104,2524.530762 
	C2458.093506,2571.585938 2463.013672,2618.633057 2467.748535,2665.698486 
	C2472.350830,2711.441650 2476.755859,2757.204346 2481.266113,2802.956787 
	C2482.377197,2814.227783 2483.597656,2825.488037 2484.699219,2836.760010 
	C2485.732666,2847.335938 2491.790771,2853.514648 2501.579590,2856.750244 
	C2517.221924,2861.920898 2532.572266,2857.088623 2542.143555,2843.531982 
	C2544.430664,2840.292480 2546.196045,2836.650391 2547.940430,2833.066650 
	C2574.334473,2778.842773 2618.884766,2748.938721 2677.304443,2740.763672 
	C2744.070068,2731.420654 2806.137695,2746.363525 2860.963867,2786.090576 
	C2943.899902,2846.186768 2985.366699,2929.722168 2995.583984,3030.182861 
	C2995.806885,3032.374756 2997.072510,3035.491455 2993.063721,3036.978760 
	C2991.737305,3035.982422 2989.931885,3035.108398 2988.789307,3033.697510 
	C2959.690186,2997.767090 2922.878662,2971.865479 2881.865967,2951.461426 
	C2813.336914,2917.367188 2739.887939,2902.200684 2664.282471,2896.683838 
	C2582.116455,2890.687988 2500.505371,2897.550049 2419.270752,2910.244385 
	C2379.127441,2916.517578 2338.910889,2922.330322 2298.698730,2928.152100 
	C2253.175049,2934.742920 2207.443604,2939.388916 2161.511719,2941.935547 
	C2090.791016,2945.857178 2020.250244,2945.476074 1950.363281,2931.975098 
	C1908.981689,2923.980469 1868.831909,2912.137939 1831.465698,2892.123291 
	C1805.979370,2878.471924 1782.981812,2861.607666 1764.387207,2839.210449 
	C1746.940918,2818.196289 1735.008545,2794.346436 1732.851074,2767.062988 
	C1731.443848,2749.267090 1732.785767,2731.130371 1734.277100,2713.261475 
	C1736.022583,2692.346924 1743.739868,2673.213867 1754.987549,2655.463867 
	C1756.881958,2652.473877 1760.739136,2649.835449 1758.487427,2644.146240 
	C1756.184204,2644.871582 1753.668823,2645.226318 1751.607056,2646.387207 
	C1741.740234,2651.941650 1731.694458,2657.257812 1722.260376,2663.488525 
	C1678.991821,2692.066895 1645.070679,2728.855713 1624.909058,2777.176025 
	C1604.103760,2827.038818 1599.341187,2878.874512 1607.175049,2932.075684 
	C1617.066528,2999.250244 1646.894287,3055.776855 1697.487061,3101.251953 
	C1736.329712,3136.165283 1781.665894,3159.407471 1830.833252,3175.829590 
	C1894.663574,3197.148926 1960.689941,3204.814941 2027.521484,3206.829590 
	C2113.620117,3209.425293 2197.419678,3196.534424 2279.195557,3169.285400 
	C2335.554443,3150.505615 2389.514404,3126.016846 2444.050293,3102.815186 
	C2483.257568,3086.134277 2522.460449,3069.292725 2562.409180,3054.536865 
	C2636.854736,3027.039307 2713.779785,3012.840820 2793.505371,3015.712646 
	C2814.286621,3016.460938 2834.711914,3019.273682 2854.656982,3024.696045 
	C2885.991943,3033.214844 2914.499512,3047.182129 2936.989014,3071.466553 
	C2983.830566,3122.047119 2977.113037,3196.933105 2922.076172,3238.409424 
	C2899.673340,3255.292480 2874.010986,3263.937012 2846.670410,3268.232666 
	C2806.436035,3274.553955 2766.704590,3270.432861 2727.903320,3259.630371 
	C2657.916016,3240.145264 2601.659668,3200.848877 2561.301514,3139.787842 
	C2558.747070,3135.923096 2556.197266,3131.848633 2552.824463,3128.771484 
	C2544.016113,3120.736328 2533.509033,3120.493896 2522.811523,3124.050293 
	C2512.817627,3127.372559 2508.116455,3135.130615 2507.241211,3145.216064 
	C2506.724121,3151.172607 2506.770508,3157.197998 2506.883057,3163.186279 
	C2508.888916,3269.823486 2510.902832,3376.460205 2513.064941,3483.094482 
	C2513.239990,3491.723633 2513.937988,3500.426514 2515.371582,3508.930420 
	C2519.648682,3534.301025 2534.087646,3547.547363 2560.161133,3548.637695 
	C2574.066406,3549.219238 2588.121338,3547.878906 2602.023682,3546.530273 
	C2635.840332,3543.249023 2669.612305,3539.505371 2703.392334,3535.856445 
	C2744.460449,3531.420654 2785.514160,3526.854736 2826.581299,3522.411865 
	C2871.620117,3517.539551 2916.657959,3512.654053 2961.713867,3507.945068 
	C2992.858643,3504.690186 3024.022217,3501.599609 3055.198486,3498.662842 
	C3093.007324,3495.101807 3130.811768,3491.435791 3168.667969,3488.451904 
	C3206.531250,3485.467773 3244.342285,3482.474365 3281.955322,3476.799805 
	C3371.644043,3463.268799 3457.112793,3436.611816 3537.807373,3395.258301 
	C3626.161865,3349.979492 3702.895020,3290.212158 3763.579346,3210.916016 
	C3834.816895,3117.829590 3872.522217,3013.260742 3870.943115,2895.467773 
	C3870.577148,2868.161865 3868.571289,2840.879883 3867.476807,2813.580566 
	C3867.294189,2809.023438 3867.915527,2804.434326 3867.972656,2800.037109 
	C3867.972656,2800.037109 3867.780029,2800.214355 3870.570557,2800.526855 
	C3895.186279,2840.527832 3907.755615,2884.532227 3911.381104,2930.878418 
	C3915.343018,2981.526367 3913.143555,3032.074707 3903.974854,3082.222412 
	C3886.945312,3175.364258 3845.659180,3255.906494 3779.300537,3323.505615 
	C3725.937012,3377.866455 3663.278564,3419.106934 3595.585938,3453.163086 
	C3505.316406,3498.576904 3410.108643,3530.407227 3312.696533,3556.327148 
	C3174.275879,3593.158691 3034.157715,3622.497559 2894.087402,3652.088135 
	C2812.001709,3669.429443 2729.905518,3686.799805 2648.764404,3708.218506 
	C2517.742188,3742.803711 2394.343750,3795.238770 2280.027832,3868.301270 
	C2132.783203,3962.409912 2011.455566,4082.119385 1921.960083,4232.965332 
	C1840.131226,4370.889648 1795.511963,4519.986816 1788.807617,4680.251465 
	C1785.559692,4757.891602 1792.714722,4834.773438 1809.572144,4910.563477 
	C1841.810181,5055.501465 1903.966797,5186.201172 1999.543701,5300.189453 
	C2126.007324,5451.013672 2285.085693,5548.037598 2478.640625,5586.989746 
	C2490.748291,5589.426758 2502.951172,5593.347168 2515.799561,5591.737793 
	C2515.578369,5590.428711 2515.695068,5589.402832 2515.320801,5589.171875 
	C2511.953125,5587.093750 2508.533447,5585.092773 2505.065186,5583.185059 
	C2456.975098,5556.733887 2412.392578,5525.263184 2371.630615,5488.558105 
	C2277.661133,5403.940918 2210.305420,5301.097656 2165.363281,5183.416992 
	C2125.713135,5079.593750 2106.288574,4971.989258 2108.408203,4860.696777 
	C2109.196289,4819.332520 2112.982422,4778.255371 2119.442383,4737.364746 
	C2133.946045,4645.555664 2164.002686,4559.260742 2210.365479,4478.721191 
	C2266.734131,4380.801270 2342.217041,4299.944336 2431.951660,4231.975586 
	C2524.008301,4162.249023 2625.320557,4109.423340 2732.953613,4068.387939 
	C2827.548584,4032.323242 2923.182861,3999.159424 3019.334961,3967.505371 
	C3145.190674,3926.072510 3271.147949,3884.947021 3397.030273,3843.593994 
	C3481.888916,3815.717529 3565.362305,3784.328125 3645.699219,3745.022705 
	C3723.836914,3706.793457 3797.613770,3661.852539 3863.060547,3604.069824 
	C3914.415283,3558.728516 3958.031494,3507.027832 3992.346191,3447.557861 
	C4041.077393,3363.104004 4066.711914,3271.275879 4079.930664,3175.434570 
	C4085.306885,3136.456299 4087.602051,3097.235840 4089.651367,3057.956299 
	C4094.117676,2972.348389 4089.304688,2887.457275 4071.969971,2803.424072 
	C4055.297852,2722.604492 4027.892578,2645.708252 3986.412842,2574.167725 
	C3963.291260,2534.289551 3936.886963,2496.728516 3904.158691,2461.494141 
	C3903.019775,2460.777832 3901.880615,2460.061279 3900.142822,2459.813477 
	C3900.142822,2459.813477 3900.648193,2459.245117 3900.147949,2457.281494 
	C3899.017822,2456.632324 3897.887939,2455.982910 3896.167725,2455.804443 
	C3896.167725,2455.804443 3896.657959,2455.230225 3896.161621,2453.268066 
	C3895.032959,2452.620117 3893.904297,2451.971924 3892.205322,2451.774414 
	C3892.205322,2451.774414 3892.665771,2451.212158 3892.166992,2449.253174 
	C3891.037842,2448.609619 3889.908447,2447.966064 3888.217773,2447.762207 
	C3888.217773,2447.762207 3888.666016,2447.207275 3888.163574,2445.249512 
	C3887.032715,2444.609131 3885.901611,2443.968750 3884.207031,2443.773926 
	C3884.207031,2443.773926 3884.659912,2443.216064 3884.152832,2441.257324 
M4318.269531,2777.171875 
	C4318.461426,2778.365967 4319.128418,2779.162842 4321.149902,2782.325928 
	C4335.281250,2814.741699 4346.364746,2848.229248 4356.022461,2882.199951 
	C4380.208984,2967.273193 4391.841309,3054.370850 4395.121582,3142.469971 
	C4399.245117,3253.227539 4394.540527,3363.618164 4376.757812,3473.284912 
	C4364.670898,3547.824219 4346.436523,3620.626221 4319.477539,3691.201904 
	C4267.501953,3827.268799 4186.130371,3942.475586 4074.606934,4036.268311 
	C3992.831543,4105.042480 3901.451172,4158.055176 3803.441650,4199.790527 
	C3703.536621,4242.333008 3601.828857,4280.237305 3499.323730,4316.055176 
	C3420.122803,4343.730469 3340.851074,4371.259277 3262.216064,4400.483398 
	C3165.918213,4436.271973 3072.552490,4478.589844 2984.450195,4531.898438 
	C2911.672363,4575.934570 2844.021484,4626.326660 2786.938965,4689.951660 
	C2730.892578,4752.421875 2690.104980,4823.426758 2666.828857,4904.278320 
	C2652.380371,4954.467285 2645.125732,5005.680176 2642.259277,5057.807617 
	C2639.461426,5108.686035 2642.594482,5159.000977 2651.266846,5209.075684 
	C2669.111084,5312.104980 2709.613525,5405.415039 2773.110596,5488.400391 
	C2847.169189,5585.188965 2941.512451,5654.322266 3057.295654,5693.572266 
	C3062.885498,5695.467773 3068.451172,5696.918457 3074.161621,5698.518555 
	C3074.405029,5696.579590 3074.759766,5695.784180 3074.507080,5695.454102 
	C3071.707520,5691.801758 3068.949951,5688.101562 3065.924805,5684.639160 
	C2973.479736,5578.825684 2924.043457,5455.918457 2919.167969,5315.326172 
	C2917.284180,5260.996582 2923.098877,5207.607910 2938.403809,5155.286621 
	C2963.600586,5069.146484 3008.826660,4994.555176 3069.012451,4928.720703 
	C3152.031006,4837.910645 3252.075928,4770.203125 3361.841553,4716.367676 
	C3413.852051,4690.858887 3466.854736,4667.344238 3519.685059,4643.541016 
	C3653.275146,4583.350586 3787.040283,4523.549316 3920.697510,4463.507324 
	C3981.008057,4436.414551 4038.468750,4404.159668 4093.244141,4367.156250 
	C4174.974121,4311.942871 4247.769531,4246.865234 4309.612305,4169.855957 
	C4395.216309,4063.258545 4452.804688,3942.672119 4488.013184,3811.010254 
	C4514.828125,3710.737305 4527.270508,3608.398926 4530.890625,3504.898193 
	C4533.315918,3435.561279 4531.281738,3366.331543 4524.581055,3297.213623 
	C4518.398926,3233.438477 4508.018066,3170.465820 4492.203125,3108.366699 
	C4459.513672,2980.008789 4403.007812,2863.434814 4319.762207,2757.181641 
	C4314.706055,2751.271240 4309.662598,2745.349609 4304.567383,2739.473389 
	C4304.177734,2739.023682 4303.402344,2738.671875 4302.828125,2738.701172 
	C4302.452637,2738.720459 4302.116699,2739.509277 4300.775879,2741.191406 
	C4305.819336,2750.812500 4311.175293,2761.029541 4317.369629,2773.548828 
	C4317.813477,2774.234863 4318.256836,2774.920654 4318.269531,2777.171875 
M3711.352539,3825.443115 
	C3699.409180,3831.347412 3687.558838,3837.449951 3675.506104,3843.122314 
	C3611.571045,3873.212891 3546.503662,3900.604248 3479.153076,3922.106934 
	C3420.797119,3940.737061 3362.065430,3958.190186 3303.504639,3976.178223 
	C3154.522461,4021.940430 3006.244141,4069.810791 2859.932129,4123.617676 
	C2772.241211,4155.866699 2686.931152,4193.235840 2606.067139,4240.295898 
	C2521.424805,4289.554688 2444.011963,4347.747070 2379.424805,4422.114258 
	C2315.447754,4495.779297 2270.377686,4579.460449 2243.895752,4673.283203 
	C2221.250732,4753.512207 2213.706787,4835.418945 2215.385498,4918.523926 
	C2217.001953,4998.546387 2231.419678,5076.178223 2258.200928,5151.396973 
	C2309.130859,5294.439453 2394.917725,5412.781738 2513.900146,5506.872070 
	C2584.640381,5562.812500 2662.868164,5604.969238 2749.749512,5630.231445 
	C2767.938232,5635.519531 2786.225098,5640.766602 2808.302979,5642.682129 
	C2801.803223,5636.746582 2797.555420,5632.671387 2793.104004,5628.832520 
	C2747.554688,5589.549316 2705.385986,5547.063477 2668.722412,5499.218750 
	C2588.537842,5394.580566 2545.358887,5275.944336 2536.584473,5144.970215 
	C2531.807129,5073.661133 2534.851318,5002.415527 2548.063965,4931.881348 
	C2558.540527,4875.954102 2575.136719,4822.038574 2599.799805,4770.657715 
	C2640.337402,4686.206543 2699.238525,4616.481934 2770.780518,4556.861328 
	C2829.958252,4507.544434 2895.154053,4467.524902 2963.443848,4432.281738 
	C3025.687744,4400.159180 3090.632324,4374.176758 3155.321045,4347.599121 
	C3337.686035,4272.674805 3522.216797,4203.312500 3706.294434,4132.779297 
	C3805.753906,4094.669434 3899.259521,4045.544434 3983.646484,3979.992920 
	C4053.172607,3925.985352 4112.883301,3862.805664 4161.506348,3789.285889 
	C4219.170898,3702.094727 4256.757324,3606.527344 4280.353516,3505.082031 
	C4300.064941,3420.334961 4308.088379,3334.194580 4310.902832,3247.474365 
	C4312.872070,3186.787354 4310.623535,3126.218262 4304.558105,3065.766357 
	C4298.089844,3001.292969 4286.404297,2937.897461 4267.814941,2875.782959 
	C4228.393066,2744.059814 4160.245605,2629.773193 4060.998047,2534.301025 
	C4055.042480,2528.572510 4049.233398,2522.669678 4041.935547,2517.547363 
	C4040.471680,2524.331787 4045.064697,2527.093506 4047.500000,2530.656006 
	C4071.668457,2566.011719 4091.419922,2603.722656 4107.671875,2643.277100 
	C4151.235352,2749.302979 4171.958008,2860.148682 4175.634766,2974.275635 
	C4177.631348,3036.250977 4175.354492,3098.176514 4168.969727,3159.963867 
	C4162.310547,3224.404297 4151.034180,3287.812500 4132.809082,3350.051758 
	C4086.959229,3506.630127 3996.884277,3631.997803 3866.617920,3729.216309 
	C3818.439453,3765.172607 3767.300293,3796.384766 3711.352539,3825.443115 
M4716.209961,3685.998779 
	C4717.425781,3618.541016 4712.823730,3551.437500 4702.739258,3484.771240 
	C4692.661133,3418.147949 4676.734863,3352.880859 4655.769531,3288.801514 
	C4633.333496,3220.228760 4591.970215,3122.695801 4577.175781,3105.130371 
	C4577.069336,3106.444824 4576.696777,3107.800293 4576.893555,3109.067383 
	C4586.416992,3170.256592 4596.397461,3231.378174 4605.415039,3292.641602 
	C4611.626465,3334.843994 4615.565918,3377.340332 4616.146973,3420.036133 
	C4616.845215,3471.344971 4616.564453,3522.607422 4613.181641,3573.895264 
	C4608.746094,3641.133057 4601.042969,3707.853271 4588.212402,3774.009033 
	C4569.478516,3870.599365 4540.063965,3963.627441 4496.878418,4052.194092 
	C4441.241211,4166.296875 4365.493164,4265.023926 4270.591309,4349.174316 
	C4197.390137,4414.081543 4116.654785,4467.956055 4029.800781,4512.723145 
	C3927.364746,4565.521484 3823.223877,4614.828125 3718.894775,4663.740723 
	C3620.000244,4710.104980 3520.983887,4756.214355 3422.352539,4803.132324 
	C3358.978271,4833.279297 3299.782227,4870.525391 3244.123535,4913.248047 
	C3195.798096,4950.342773 3152.141846,4992.275391 3115.508057,5041.158691 
	C3052.981934,5124.591309 3021.143066,5218.025879 3025.249268,5322.727539 
	C3026.239502,5347.981445 3028.648193,5373.263184 3031.958008,5398.327148 
	C3039.865967,5458.213379 3056.577637,5515.641113 3084.416748,5569.400391 
	C3140.770264,5678.223633 3227.001465,5752.078613 3344.103760,5789.285645 
	C3347.636230,5790.408203 3351.445557,5790.661133 3357.083008,5791.668457 
	C3353.183105,5783.781250 3350.369141,5777.825684 3347.330322,5771.986816 
	C3327.867188,5734.589355 3313.249512,5695.450195 3303.342529,5654.416992 
	C3295.960938,5623.844727 3292.008301,5592.830566 3289.652588,5561.624023 
	C3285.926025,5512.258301 3287.281982,5463.071777 3298.090332,5414.479492 
	C3316.888184,5329.966309 3359.204346,5258.882324 3421.053711,5198.933105 
	C3473.324463,5148.268066 3534.187256,5110.486328 3599.501465,5079.190918 
	C3647.546387,5056.169922 3695.562256,5033.052246 3743.057373,5008.926758 
	C3856.482178,4951.311523 3969.638916,4893.166992 4082.813477,4835.061035 
	C4181.838867,4784.219727 4272.362793,4721.254883 4352.779297,4644.111328 
	C4470.113281,4531.552734 4556.002441,4398.107910 4615.610352,4247.287598 
	C4660.683105,4133.244141 4688.246582,4014.798584 4703.193359,3893.363281 
	C4711.499023,3825.882568 4716.282715,3758.069092 4716.209961,3685.998779 
M3966.000000,1934.992554 
	C3928.700684,1935.212280 3891.401611,1935.429077 3854.102539,1935.675293 
	C3853.463623,1935.679565 3852.760986,1935.928467 3852.207275,1936.261597 
	C3851.661133,1936.590210 3851.267090,1937.171143 3849.831299,1938.636719 
	C3849.583984,1940.018799 3848.956299,1942.533081 3848.704834,1945.084351 
	C3844.499756,1987.758789 3824.483154,2022.079468 3792.754395,2049.968506 
	C3764.963135,2074.397217 3732.509766,2086.353027 3695.363770,2083.622803 
	C3658.133301,2080.886719 3625.398438,2067.975830 3600.086182,2039.302368 
	C3581.370117,2018.100952 3571.746582,1992.944092 3567.681641,1965.354126 
	C3566.253662,1955.662598 3565.629639,1945.826172 3563.568359,1936.699219 
	C3547.993652,1934.853271 3311.794434,1933.583740 3282.556641,1935.119019 
	C3280.043701,1935.250977 3277.570801,1936.148071 3276.003906,1936.488647 
	C3274.828369,1937.965942 3274.125488,1938.446655 3274.044922,1939.015381 
	C3273.487549,1942.952271 3272.959229,1946.898560 3272.607178,1950.858276 
	C3270.567627,1973.785889 3263.695557,1995.147827 3252.008789,2014.973389 
	C3220.638428,2068.190430 3158.478027,2093.717773 3101.234863,2080.604492 
	C3043.034424,2067.271973 2998.537598,2017.776978 2991.360107,1957.495483 
	C2990.516113,1950.405640 2991.204834,1942.877441 2987.385498,1936.621216 
	C2971.392334,1934.620239 2714.349854,1933.366577 2673.120361,1935.081787 
	C2670.709229,1935.182007 2668.326416,1935.960815 2666.424316,1936.328369 
	C2665.937744,1938.041382 2665.461426,1938.773315 2665.626221,1939.307495 
	C2666.210449,1941.200562 2666.858887,1943.105103 2667.756348,1944.865967 
	C2729.448730,2065.921631 2791.167236,2186.963379 2852.900391,2307.998047 
	C2853.191406,2308.568115 2853.659424,2309.096436 2854.162354,2309.496338 
	C2854.673584,2309.903076 2855.331055,2310.125977 2856.376953,2310.660889 
	C2857.878662,2310.765625 2859.867188,2311.159180 2861.811035,2311.001221 
	C2894.345459,2308.355225 2926.844238,2305.180420 2959.411133,2303.042969 
	C3016.584229,2299.290771 3073.756348,2294.809570 3131.003174,2293.036133 
	C3286.939941,2288.205811 3442.866699,2290.371582 3598.729980,2296.945557 
	C3626.023682,2298.096436 3653.318115,2299.468994 3680.568115,2301.369873 
	C3726.421875,2304.568359 3772.269043,2307.938965 3818.064697,2311.869385 
	C3854.557861,2315.001465 3890.967529,2319.102051 3927.419922,2322.715332 
	C3936.646484,2323.629883 3945.894775,2324.325439 3955.730713,2325.173096 
	C3959.521484,2318.829346 3963.026123,2313.243652 3966.261963,2307.506348 
	C4002.260986,2243.682373 4038.221436,2179.836670 4074.186523,2115.993408 
	C4105.247070,2060.856201 4136.352539,2005.744385 4167.251465,1950.516479 
	C4169.643555,1946.240601 4174.388184,1942.302490 4171.279785,1934.991943 
	C4104.475098,1934.991943 4037.237549,1934.991943 3966.000000,1934.992554 
z"/>
<path fill="#0166BD" opacity="1.000000" stroke="none" 
	d="
M3904.652832,2463.531250 
	C3936.886963,2496.728516 3963.291260,2534.289551 3986.412842,2574.167725 
	C4027.892578,2645.708252 4055.297852,2722.604492 4071.969971,2803.424072 
	C4089.304688,2887.457275 4094.117676,2972.348389 4089.651367,3057.956299 
	C4087.602051,3097.235840 4085.306885,3136.456299 4079.930664,3175.434570 
	C4066.711914,3271.275879 4041.077393,3363.104004 3992.346191,3447.557861 
	C3958.031494,3507.027832 3914.415283,3558.728516 3863.060547,3604.069824 
	C3797.613770,3661.852539 3723.836914,3706.793457 3645.699219,3745.022705 
	C3565.362305,3784.328125 3481.888916,3815.717529 3397.030273,3843.593994 
	C3271.147949,3884.947021 3145.190674,3926.072510 3019.334961,3967.505371 
	C2923.182861,3999.159424 2827.548584,4032.323242 2732.953613,4068.387939 
	C2625.320557,4109.423340 2524.008301,4162.249023 2431.951660,4231.975586 
	C2342.217041,4299.944336 2266.734131,4380.801270 2210.365479,4478.721191 
	C2164.002686,4559.260742 2133.946045,4645.555664 2119.442383,4737.364746 
	C2112.982422,4778.255371 2109.196289,4819.332520 2108.408203,4860.696777 
	C2106.288574,4971.989258 2125.713135,5079.593750 2165.363281,5183.416992 
	C2210.305420,5301.097656 2277.661133,5403.940918 2371.630615,5488.558105 
	C2412.392578,5525.263184 2456.975098,5556.733887 2505.065186,5583.185059 
	C2508.533447,5585.092773 2511.953125,5587.093750 2515.320801,5589.171875 
	C2515.695068,5589.402832 2515.578369,5590.428711 2515.799561,5591.737793 
	C2502.951172,5593.347168 2490.748291,5589.426758 2478.640625,5586.989746 
	C2285.085693,5548.037598 2126.007324,5451.013672 1999.543701,5300.189453 
	C1903.966797,5186.201172 1841.810181,5055.501465 1809.572144,4910.563477 
	C1792.714722,4834.773438 1785.559692,4757.891602 1788.807617,4680.251465 
	C1795.511963,4519.986816 1840.131226,4370.889648 1921.960083,4232.965332 
	C2011.455566,4082.119385 2132.783203,3962.409912 2280.027832,3868.301270 
	C2394.343750,3795.238770 2517.742188,3742.803711 2648.764404,3708.218506 
	C2729.905518,3686.799805 2812.001709,3669.429443 2894.087402,3652.088135 
	C3034.157715,3622.497559 3174.275879,3593.158691 3312.696533,3556.327148 
	C3410.108643,3530.407227 3505.316406,3498.576904 3595.585938,3453.163086 
	C3663.278564,3419.106934 3725.937012,3377.866455 3779.300537,3323.505615 
	C3845.659180,3255.906494 3886.945312,3175.364258 3903.974854,3082.222412 
	C3913.143555,3032.074707 3915.343018,2981.526367 3911.381104,2930.878418 
	C3907.755615,2884.532227 3895.186279,2840.527832 3869.364258,2799.514160 
	C3867.618652,2797.528809 3867.079102,2796.556152 3866.539551,2795.583496 
	C3866.158447,2795.999512 3865.395996,2796.713623 3865.453857,2796.787598 
	C3866.292969,2797.862061 3867.242432,2798.850586 3868.165283,2799.859863 
	C3867.915527,2804.434326 3867.294189,2809.023438 3867.476807,2813.580566 
	C3868.571289,2840.879883 3870.577148,2868.161865 3870.943115,2895.467773 
	C3872.522217,3013.260742 3834.816895,3117.829590 3763.579346,3210.916016 
	C3702.895020,3290.212158 3626.161865,3349.979492 3537.807373,3395.258301 
	C3457.112793,3436.611816 3371.644043,3463.268799 3281.955322,3476.799805 
	C3244.342285,3482.474365 3206.531250,3485.467773 3168.667969,3488.451904 
	C3130.811768,3491.435791 3093.007324,3495.101807 3055.198486,3498.662842 
	C3024.022217,3501.599609 2992.858643,3504.690186 2961.713867,3507.945068 
	C2916.657959,3512.654053 2871.620117,3517.539551 2826.581299,3522.411865 
	C2785.514160,3526.854736 2744.460449,3531.420654 2703.392334,3535.856445 
	C2669.612305,3539.505371 2635.840332,3543.249023 2602.023682,3546.530273 
	C2588.121338,3547.878906 2574.066406,3549.219238 2560.161133,3548.637695 
	C2534.087646,3547.547363 2519.648682,3534.301025 2515.371582,3508.930420 
	C2513.937988,3500.426514 2513.239990,3491.723633 2513.064941,3483.094482 
	C2510.902832,3376.460205 2508.888916,3269.823486 2506.883057,3163.186279 
	C2506.770508,3157.197998 2506.724121,3151.172607 2507.241211,3145.216064 
	C2508.116455,3135.130615 2512.817627,3127.372559 2522.811523,3124.050293 
	C2533.509033,3120.493896 2544.016113,3120.736328 2552.824463,3128.771484 
	C2556.197266,3131.848633 2558.747070,3135.923096 2561.301514,3139.787842 
	C2601.659668,3200.848877 2657.916016,3240.145264 2727.903320,3259.630371 
	C2766.704590,3270.432861 2806.436035,3274.553955 2846.670410,3268.232666 
	C2874.010986,3263.937012 2899.673340,3255.292480 2922.076172,3238.409424 
	C2977.113037,3196.933105 2983.830566,3122.047119 2936.989014,3071.466553 
	C2914.499512,3047.182129 2885.991943,3033.214844 2854.656982,3024.696045 
	C2834.711914,3019.273682 2814.286621,3016.460938 2793.505371,3015.712646 
	C2713.779785,3012.840820 2636.854736,3027.039307 2562.409180,3054.536865 
	C2522.460449,3069.292725 2483.257568,3086.134277 2444.050293,3102.815186 
	C2389.514404,3126.016846 2335.554443,3150.505615 2279.195557,3169.285400 
	C2197.419678,3196.534424 2113.620117,3209.425293 2027.521484,3206.829590 
	C1960.689941,3204.814941 1894.663574,3197.148926 1830.833252,3175.829590 
	C1781.665894,3159.407471 1736.329712,3136.165283 1697.487061,3101.251953 
	C1646.894287,3055.776855 1617.066528,2999.250244 1607.175049,2932.075684 
	C1599.341187,2878.874512 1604.103760,2827.038818 1624.909058,2777.176025 
	C1645.070679,2728.855713 1678.991821,2692.066895 1722.260376,2663.488525 
	C1731.694458,2657.257812 1741.740234,2651.941650 1751.607056,2646.387207 
	C1753.668823,2645.226318 1756.184204,2644.871582 1758.487427,2644.146240 
	C1760.739136,2649.835449 1756.881958,2652.473877 1754.987549,2655.463867 
	C1743.739868,2673.213867 1736.022583,2692.346924 1734.277100,2713.261475 
	C1732.785767,2731.130371 1731.443848,2749.267090 1732.851074,2767.062988 
	C1735.008545,2794.346436 1746.940918,2818.196289 1764.387207,2839.210449 
	C1782.981812,2861.607666 1805.979370,2878.471924 1831.465698,2892.123291 
	C1868.831909,2912.137939 1908.981689,2923.980469 1950.363281,2931.975098 
	C2020.250244,2945.476074 2090.791016,2945.857178 2161.511719,2941.935547 
	C2207.443604,2939.388916 2253.175049,2934.742920 2298.698730,2928.152100 
	C2338.910889,2922.330322 2379.127441,2916.517578 2419.270752,2910.244385 
	C2500.505371,2897.550049 2582.116455,2890.687988 2664.282471,2896.683838 
	C2739.887939,2902.200684 2813.336914,2917.367188 2881.865967,2951.461426 
	C2922.878662,2971.865479 2959.690186,2997.767090 2988.789307,3033.697510 
	C2989.931885,3035.108398 2991.737305,3035.982422 2993.063721,3036.978760 
	C2997.072510,3035.491455 2995.806885,3032.374756 2995.583984,3030.182861 
	C2985.366699,2929.722168 2943.899902,2846.186768 2860.963867,2786.090576 
	C2806.137695,2746.363525 2744.070068,2731.420654 2677.304443,2740.763672 
	C2618.884766,2748.938721 2574.334473,2778.842773 2547.940430,2833.066650 
	C2546.196045,2836.650391 2544.430664,2840.292480 2542.143555,2843.531982 
	C2532.572266,2857.088623 2517.221924,2861.920898 2501.579590,2856.750244 
	C2491.790771,2853.514648 2485.732666,2847.335938 2484.699219,2836.760010 
	C2483.597656,2825.488037 2482.377197,2814.227783 2481.266113,2802.956787 
	C2476.755859,2757.204346 2472.350830,2711.441650 2467.748535,2665.698486 
	C2463.013672,2618.633057 2458.093506,2571.585938 2453.256104,2524.530762 
	C2451.688721,2509.285889 2450.047607,2494.047852 2448.608398,2478.791016 
	C2448.171387,2474.159668 2448.052734,2469.467285 2448.207520,2464.816650 
	C2448.814209,2446.600098 2457.312988,2433.108398 2473.238037,2424.409668 
	C2486.900635,2416.947021 2501.787598,2413.299561 2517.141846,2411.863525 
	C2545.670898,2409.194824 2574.228760,2406.823730 2602.790771,2404.528809 
	C2667.219971,2399.351562 2731.656494,2394.265869 2796.094971,2389.208252 
	C2819.347168,2387.383057 2842.609131,2385.675049 2865.877441,2384.073730 
	C2871.116211,2383.713135 2876.401367,2384.020508 2882.487061,2384.020508 
	C2885.582764,2391.647705 2888.608154,2398.920166 2891.495850,2406.246826 
	C2906.146973,2443.418701 2920.471924,2480.722412 2935.494141,2517.743652 
	C2945.274902,2541.848389 2957.291504,2564.907715 2971.258057,2586.900391 
	C2983.119385,2605.578125 2996.727295,2622.758057 3014.256836,2636.523438 
	C3032.649658,2650.967041 3053.525146,2658.724121 3076.912354,2659.677246 
	C3101.029053,2660.660156 3119.423096,2650.669678 3132.492432,2630.596191 
	C3144.030029,2612.874756 3149.315430,2593.049072 3151.722656,2572.311768 
	C3152.405518,2566.430664 3152.739014,2560.509033 3153.304932,2553.744385 
	C3227.332520,2531.589355 3302.402588,2533.732178 3377.239502,2537.472900 
	C3379.415771,2533.388428 3376.616699,2532.639404 3374.378174,2531.521484 
	C3350.293213,2519.494873 3324.525635,2512.579590 3298.205566,2508.260498 
	C3253.518555,2500.926758 3208.652588,2494.684326 3163.864014,2487.968750 
	C3117.095215,2480.956299 3070.343262,2473.877441 3024.880127,2460.282715 
	C3001.209961,2453.204834 2978.183594,2444.593018 2956.431641,2432.747314 
	C2938.736328,2423.111328 2922.723389,2411.264648 2908.827393,2396.669434 
	C2905.732422,2393.418945 2903.323242,2389.515625 2900.144775,2385.312988 
	C2907.752930,2380.648193 2915.208984,2381.585205 2922.252930,2381.180176 
	C2948.867676,2379.651367 2975.494629,2378.300537 3002.128906,2377.157715 
	C3047.410156,2375.214600 3092.717773,2373.828613 3137.983154,2371.581299 
	C3222.594238,2367.380371 3307.248535,2368.142090 3391.903320,2368.708496 
	C3447.918213,2369.083252 3503.864746,2371.665283 3559.620117,2376.912598 
	C3592.084717,2379.968262 3624.555420,2383.728027 3656.277832,2391.993408 
	C3688.064209,2400.275635 3718.443115,2411.895264 3746.188721,2429.706299 
	C3782.478760,2453.002686 3811.025879,2482.951416 3825.425537,2524.493652 
	C3839.006836,2563.675537 3838.973633,2603.075439 3824.655762,2641.981201 
	C3807.595947,2688.337158 3770.365723,2714.361328 3721.141846,2716.354248 
	C3695.698242,2717.384277 3672.212402,2712.043701 3650.735840,2698.243896 
	C3647.463135,2696.141113 3644.126465,2694.137939 3638.925049,2690.914795 
	C3638.697021,2695.083008 3638.001465,2697.429199 3638.542969,2699.443115 
	C3647.517334,2732.831543 3669.791016,2754.595215 3700.422363,2768.342041 
	C3737.547607,2785.003174 3775.719482,2783.782715 3813.717041,2771.999023 
	C3845.477783,2762.149170 3870.061768,2742.483398 3887.266602,2713.795166 
	C3896.969727,2697.615479 3904.116211,2680.256104 3907.316406,2661.840820 
	C3920.113281,2588.202393 3913.153809,2517.168457 3876.812500,2447.795166 
	C3877.837646,2443.175781 3879.201904,2441.149902 3880.566162,2439.124023 
	C3880.566162,2439.124023 3880.460693,2439.403076 3880.848633,2440.359863 
	C3882.377686,2441.949951 3883.518799,2442.583008 3884.659912,2443.216064 
	C3884.659912,2443.216064 3884.207031,2443.773926 3884.727051,2444.539795 
	C3886.386719,2445.939697 3887.526367,2446.573486 3888.666016,2447.207275 
	C3888.666016,2447.207275 3888.217773,2447.762207 3888.734375,2448.531738 
	C3890.389160,2449.938477 3891.527344,2450.575439 3892.665771,2451.212158 
	C3892.665771,2451.212158 3892.205322,2451.774414 3892.725098,2452.540039 
	C3894.382812,2453.947266 3895.520264,2454.588867 3896.657959,2455.230225 
	C3896.657959,2455.230225 3896.167725,2455.804443 3896.698730,2456.561035 
	C3898.369141,2457.960205 3899.508789,2458.602539 3900.648193,2459.245117 
	C3900.648193,2459.245117 3900.142822,2459.813477 3900.690918,2460.592285 
	C3902.377197,2462.091064 3903.515137,2462.811279 3904.652832,2463.531250 
z"/>
<path fill="#0166BD" opacity="1.000000" stroke="none" 
	d="
M3712.668945,3824.765137 
	C3767.300293,3796.384766 3818.439453,3765.172607 3866.617920,3729.216309 
	C3996.884277,3631.997803 4086.959229,3506.630127 4132.809082,3350.051758 
	C4151.034180,3287.812500 4162.310547,3224.404297 4168.969727,3159.963867 
	C4175.354492,3098.176514 4177.631348,3036.250977 4175.634766,2974.275635 
	C4171.958008,2860.148682 4151.235352,2749.302979 4107.671875,2643.277100 
	C4091.419922,2603.722656 4071.668457,2566.011719 4047.500000,2530.656006 
	C4045.064697,2527.093506 4040.471680,2524.331787 4041.935547,2517.547363 
	C4049.233398,2522.669678 4055.042480,2528.572510 4060.998047,2534.301025 
	C4160.245605,2629.773193 4228.393066,2744.059814 4267.814941,2875.782959 
	C4286.404297,2937.897461 4298.089844,3001.292969 4304.558105,3065.766357 
	C4310.623535,3126.218262 4312.872070,3186.787354 4310.902832,3247.474365 
	C4308.088379,3334.194580 4300.064941,3420.334961 4280.353516,3505.082031 
	C4256.757324,3606.527344 4219.170898,3702.094727 4161.506348,3789.285889 
	C4112.883301,3862.805664 4053.172607,3925.985352 3983.646484,3979.992920 
	C3899.259521,4045.544434 3805.753906,4094.669434 3706.294434,4132.779297 
	C3522.216797,4203.312500 3337.686035,4272.674805 3155.321045,4347.599121 
	C3090.632324,4374.176758 3025.687744,4400.159180 2963.443848,4432.281738 
	C2895.154053,4467.524902 2829.958252,4507.544434 2770.780518,4556.861328 
	C2699.238525,4616.481934 2640.337402,4686.206543 2599.799805,4770.657715 
	C2575.136719,4822.038574 2558.540527,4875.954102 2548.063965,4931.881348 
	C2534.851318,5002.415527 2531.807129,5073.661133 2536.584473,5144.970215 
	C2545.358887,5275.944336 2588.537842,5394.580566 2668.722412,5499.218750 
	C2705.385986,5547.063477 2747.554688,5589.549316 2793.104004,5628.832520 
	C2797.555420,5632.671387 2801.803223,5636.746582 2808.302979,5642.682129 
	C2786.225098,5640.766602 2767.938232,5635.519531 2749.749512,5630.231445 
	C2662.868164,5604.969238 2584.640381,5562.812500 2513.900146,5506.872070 
	C2394.917725,5412.781738 2309.130859,5294.439453 2258.200928,5151.396973 
	C2231.419678,5076.178223 2217.001953,4998.546387 2215.385498,4918.523926 
	C2213.706787,4835.418945 2221.250732,4753.512207 2243.895752,4673.283203 
	C2270.377686,4579.460449 2315.447754,4495.779297 2379.424805,4422.114258 
	C2444.011963,4347.747070 2521.424805,4289.554688 2606.067139,4240.295898 
	C2686.931152,4193.235840 2772.241211,4155.866699 2859.932129,4123.617676 
	C3006.244141,4069.810791 3154.522461,4021.940430 3303.504639,3976.178223 
	C3362.065430,3958.190186 3420.797119,3940.737061 3479.153076,3922.106934 
	C3546.503662,3900.604248 3611.571045,3873.212891 3675.506104,3843.122314 
	C3687.558838,3837.449951 3699.409180,3831.347412 3712.668945,3824.765137 
z"/>
<path fill="#0166BD" opacity="1.000000" stroke="none" 
	d="
M4320.215332,2759.815674 
	C4403.007812,2863.434814 4459.513672,2980.008789 4492.203125,3108.366699 
	C4508.018066,3170.465820 4518.398926,3233.438477 4524.581055,3297.213623 
	C4531.281738,3366.331543 4533.315918,3435.561279 4530.890625,3504.898193 
	C4527.270508,3608.398926 4514.828125,3710.737305 4488.013184,3811.010254 
	C4452.804688,3942.672119 4395.216309,4063.258545 4309.612305,4169.855957 
	C4247.769531,4246.865234 4174.974121,4311.942871 4093.244141,4367.156250 
	C4038.468750,4404.159668 3981.008057,4436.414551 3920.697510,4463.507324 
	C3787.040283,4523.549316 3653.275146,4583.350586 3519.685059,4643.541016 
	C3466.854736,4667.344238 3413.852051,4690.858887 3361.841553,4716.367676 
	C3252.075928,4770.203125 3152.031006,4837.910645 3069.012451,4928.720703 
	C3008.826660,4994.555176 2963.600586,5069.146484 2938.403809,5155.286621 
	C2923.098877,5207.607910 2917.284180,5260.996582 2919.167969,5315.326172 
	C2924.043457,5455.918457 2973.479736,5578.825684 3065.924805,5684.639160 
	C3068.949951,5688.101562 3071.707520,5691.801758 3074.507080,5695.454102 
	C3074.759766,5695.784180 3074.405029,5696.579590 3074.161621,5698.518555 
	C3068.451172,5696.918457 3062.885498,5695.467773 3057.295654,5693.572266 
	C2941.512451,5654.322266 2847.169189,5585.188965 2773.110596,5488.400391 
	C2709.613525,5405.415039 2669.111084,5312.104980 2651.266846,5209.075684 
	C2642.594482,5159.000977 2639.461426,5108.686035 2642.259277,5057.807617 
	C2645.125732,5005.680176 2652.380371,4954.467285 2666.828857,4904.278320 
	C2690.104980,4823.426758 2730.892578,4752.421875 2786.938965,4689.951660 
	C2844.021484,4626.326660 2911.672363,4575.934570 2984.450195,4531.898438 
	C3072.552490,4478.589844 3165.918213,4436.271973 3262.216064,4400.483398 
	C3340.851074,4371.259277 3420.122803,4343.730469 3499.323730,4316.055176 
	C3601.828857,4280.237305 3703.536621,4242.333008 3803.441650,4199.790527 
	C3901.451172,4158.055176 3992.831543,4105.042480 4074.606934,4036.268311 
	C4186.130371,3942.475586 4267.501953,3827.268799 4319.477539,3691.201904 
	C4346.436523,3620.626221 4364.670898,3547.824219 4376.757812,3473.284912 
	C4394.540527,3363.618164 4399.245117,3253.227539 4395.121582,3142.469971 
	C4391.841309,3054.370850 4380.208984,2967.273193 4356.022461,2882.199951 
	C4346.364746,2848.229248 4335.281250,2814.741699 4320.824219,2780.170898 
	C4320.358887,2776.869629 4319.759277,2776.066406 4318.700684,2775.606201 
	C4318.256836,2774.920654 4317.813477,2774.234863 4317.046875,2771.081299 
	C4316.317871,2765.058105 4315.986816,2761.532227 4320.215332,2759.815674 
z"/>
<path fill="#0266BD" opacity="1.000000" stroke="none" 
	d="
M4716.193359,3687.998291 
	C4716.282715,3758.069092 4711.499023,3825.882568 4703.193359,3893.363281 
	C4688.246582,4014.798584 4660.683105,4133.244141 4615.610352,4247.287598 
	C4556.002441,4398.107910 4470.113281,4531.552734 4352.779297,4644.111328 
	C4272.362793,4721.254883 4181.838867,4784.219727 4082.813477,4835.061035 
	C3969.638916,4893.166992 3856.482178,4951.311523 3743.057373,5008.926758 
	C3695.562256,5033.052246 3647.546387,5056.169922 3599.501465,5079.190918 
	C3534.187256,5110.486328 3473.324463,5148.268066 3421.053711,5198.933105 
	C3359.204346,5258.882324 3316.888184,5329.966309 3298.090332,5414.479492 
	C3287.281982,5463.071777 3285.926025,5512.258301 3289.652588,5561.624023 
	C3292.008301,5592.830566 3295.960938,5623.844727 3303.342529,5654.416992 
	C3313.249512,5695.450195 3327.867188,5734.589355 3347.330322,5771.986816 
	C3350.369141,5777.825684 3353.183105,5783.781250 3357.083008,5791.668457 
	C3351.445557,5790.661133 3347.636230,5790.408203 3344.103760,5789.285645 
	C3227.001465,5752.078613 3140.770264,5678.223633 3084.416748,5569.400391 
	C3056.577637,5515.641113 3039.865967,5458.213379 3031.958008,5398.327148 
	C3028.648193,5373.263184 3026.239502,5347.981445 3025.249268,5322.727539 
	C3021.143066,5218.025879 3052.981934,5124.591309 3115.508057,5041.158691 
	C3152.141846,4992.275391 3195.798096,4950.342773 3244.123535,4913.248047 
	C3299.782227,4870.525391 3358.978271,4833.279297 3422.352539,4803.132324 
	C3520.983887,4756.214355 3620.000244,4710.104980 3718.894775,4663.740723 
	C3823.223877,4614.828125 3927.364746,4565.521484 4029.800781,4512.723145 
	C4116.654785,4467.956055 4197.390137,4414.081543 4270.591309,4349.174316 
	C4365.493164,4265.023926 4441.241211,4166.296875 4496.878418,4052.194092 
	C4540.063965,3963.627441 4569.478516,3870.599365 4588.212402,3774.009033 
	C4601.042969,3707.853271 4608.746094,3641.133057 4613.181641,3573.895264 
	C4616.564453,3522.607422 4616.845215,3471.344971 4616.146973,3420.036133 
	C4615.565918,3377.340332 4611.626465,3334.843994 4605.415039,3292.641602 
	C4596.397461,3231.378174 4586.416992,3170.256592 4576.893555,3109.067383 
	C4576.696777,3107.800293 4577.069336,3106.444824 4577.176758,3105.130371 
	C4591.970215,3122.695801 4633.333496,3220.228760 4655.769531,3288.801514 
	C4676.734863,3352.880859 4692.661133,3418.147949 4702.739258,3484.771240 
	C4712.823730,3551.437500 4717.425781,3618.541016 4716.193359,3687.998291 
z"/>
<path fill="#0166BD" opacity="1.000000" stroke="none" 
	d="
M3968.000000,1934.992188 
	C4037.237549,1934.991943 4104.475098,1934.991943 4171.279785,1934.991943 
	C4174.388184,1942.302490 4169.643555,1946.240601 4167.251465,1950.516479 
	C4136.352539,2005.744385 4105.247070,2060.856201 4074.186523,2115.993408 
	C4038.221436,2179.836670 4002.260986,2243.682373 3966.261963,2307.506348 
	C3963.026123,2313.243652 3959.521484,2318.829346 3955.730713,2325.173096 
	C3945.894775,2324.325439 3936.646484,2323.629883 3927.419922,2322.715332 
	C3890.967529,2319.102051 3854.557861,2315.001465 3818.064697,2311.869385 
	C3772.269043,2307.938965 3726.421875,2304.568359 3680.568115,2301.369873 
	C3653.318115,2299.468994 3626.023682,2298.096436 3598.729980,2296.945557 
	C3442.866699,2290.371582 3286.939941,2288.205811 3131.003174,2293.036133 
	C3073.756348,2294.809570 3016.584229,2299.290771 2959.411133,2303.042969 
	C2926.844238,2305.180420 2894.345459,2308.355225 2861.811035,2311.001221 
	C2859.867188,2311.159180 2857.878662,2310.765625 2856.376953,2310.660889 
	C2855.331055,2310.125977 2854.673584,2309.903076 2854.162354,2309.496338 
	C2853.659424,2309.096436 2853.191406,2308.568115 2852.900391,2307.998047 
	C2791.167236,2186.963379 2729.448730,2065.921631 2667.756348,1944.865967 
	C2666.858887,1943.105103 2666.210449,1941.200562 2665.626221,1939.307495 
	C2665.461426,1938.773315 2665.937744,1938.041382 2666.424316,1936.328369 
	C2668.326416,1935.960815 2670.709229,1935.182007 2673.120361,1935.081787 
	C2714.349854,1933.366577 2971.392334,1934.620239 2987.385498,1936.621216 
	C2991.204834,1942.877441 2990.516113,1950.405640 2991.360107,1957.495483 
	C2998.537598,2017.776978 3043.034424,2067.271973 3101.234863,2080.604492 
	C3158.478027,2093.717773 3220.638428,2068.190430 3252.008789,2014.973389 
	C3263.695557,1995.147827 3270.567627,1973.785889 3272.607178,1950.858276 
	C3272.959229,1946.898560 3273.487549,1942.952271 3274.044922,1939.015381 
	C3274.125488,1938.446655 3274.828369,1937.965942 3276.003906,1936.488647 
	C3277.570801,1936.148071 3280.043701,1935.250977 3282.556641,1935.119019 
	C3311.794434,1933.583740 3547.993652,1934.853271 3563.568359,1936.699219 
	C3565.629639,1945.826172 3566.253662,1955.662598 3567.681641,1965.354126 
	C3571.746582,1992.944092 3581.370117,2018.100952 3600.086182,2039.302368 
	C3625.398438,2067.975830 3658.133301,2080.886719 3695.363770,2083.622803 
	C3732.509766,2086.353027 3764.963135,2074.397217 3792.754395,2049.968506 
	C3824.483154,2022.079468 3844.499756,1987.758789 3848.704834,1945.084351 
	C3848.956299,1942.533081 3849.583984,1940.018799 3849.831299,1938.636719 
	C3851.267090,1937.171143 3851.661133,1936.590210 3852.207275,1936.261597 
	C3852.760986,1935.928467 3853.463623,1935.679565 3854.102539,1935.675293 
	C3891.401611,1935.429077 3928.700684,1935.212280 3968.000000,1934.992188 
z"/>
<path fill="#5390C8" opacity="1.000000" stroke="none" 
	d="
M3880.186279,2437.884521 
	C3879.201904,2441.149902 3877.837646,2443.175781 3876.278320,2446.483887 
	C3868.837646,2437.875732 3861.591797,2427.985840 3852.687744,2415.832520 
	C3860.779053,2418.197510 3864.323486,2422.671387 3868.427246,2426.064697 
	C3872.412109,2429.359619 3876.028320,2433.100342 3880.186279,2437.884521 
z"/>
<path fill="#5D98CC" opacity="1.000000" stroke="none" 
	d="
M4319.988770,2758.498535 
	C4315.986816,2761.532227 4316.317871,2765.058105 4316.627441,2769.930176 
	C4311.175293,2761.029541 4305.819336,2750.812500 4300.775879,2741.191406 
	C4302.116699,2739.509277 4302.452637,2738.720459 4302.828125,2738.701172 
	C4303.402344,2738.671875 4304.177734,2739.023682 4304.567383,2739.473389 
	C4309.662598,2745.349609 4314.706055,2751.271240 4319.988770,2758.498535 
z"/>
<path fill="#5390C8" opacity="1.000000" stroke="none" 
	d="
M3892.416504,2450.232666 
	C3891.527344,2450.575439 3890.389160,2449.938477 3889.015137,2448.312012 
	C3889.908447,2447.966064 3891.037842,2448.609619 3892.416504,2450.232666 
z"/>
<path fill="#5390C8" opacity="1.000000" stroke="none" 
	d="
M3896.409668,2454.249023 
	C3895.520264,2454.588867 3894.382812,2453.947266 3893.010254,2452.314941 
	C3893.904297,2451.971924 3895.032959,2452.620117 3896.409668,2454.249023 
z"/>
<path fill="#5390C8" opacity="1.000000" stroke="none" 
	d="
M3900.397949,2458.263184 
	C3899.508789,2458.602539 3898.369141,2457.960205 3896.993652,2456.325684 
	C3897.887939,2455.982910 3899.017822,2456.632324 3900.397949,2458.263184 
z"/>
<path fill="#5390C8" opacity="1.000000" stroke="none" 
	d="
M3904.405762,2462.512695 
	C3903.515137,2462.811279 3902.377197,2462.091064 3900.990479,2460.357910 
	C3901.880615,2460.061279 3903.019775,2460.777832 3904.405762,2462.512695 
z"/>
<path fill="#5390C8" opacity="1.000000" stroke="none" 
	d="
M3888.414795,2446.228516 
	C3887.526367,2446.573486 3886.386719,2445.939697 3885.009033,2444.316895 
	C3885.901611,2443.968750 3887.032715,2444.609131 3888.414795,2446.228516 
z"/>
<path fill="#5390C8" opacity="1.000000" stroke="none" 
	d="
M3884.406250,2442.236816 
	C3883.518799,2442.583008 3882.377686,2441.949951 3880.994629,2440.328369 
	C3881.885986,2439.979248 3883.019287,2440.618164 3884.406250,2442.236816 
z"/>
<path fill="#5D98CC" opacity="1.000000" stroke="none" 
	d="
M4318.485352,2776.389160 
	C4319.759277,2776.066406 4320.358887,2776.869629 4320.384766,2778.789062 
	C4319.128418,2779.162842 4318.461426,2778.365967 4318.485352,2776.389160 
z"/>
<path fill="#F1F2F2" opacity="1.000000" stroke="none" 
	d="
M3868.068848,2799.948486 
	C3867.242432,2798.850586 3866.292969,2797.862061 3865.453857,2796.787598 
	C3865.395996,2796.713623 3866.158447,2795.999512 3866.539551,2795.583496 
	C3867.079102,2796.556152 3867.618652,2797.528809 3867.969238,2799.357910 
	C3867.780029,2800.214355 3867.972656,2800.037109 3868.068848,2799.948486 
z"/>
</svg>